<?xml version="1.0" encoding="utf-8"?>
<!-- Generator: Adobe Illustrator 24.2.3, SVG Export Plug-In . SVG Version: 6.00 Build 0)  -->
<svg version="1.1" id="Layer_1" xmlns="http://www.w3.org/2000/svg" xmlns:xlink="http://www.w3.org/1999/xlink" x="0px" y="0px"
	 viewBox="0 0 512 512" style="enable-background:new 0 0 512 512;" xml:space="preserve">
<style type="text/css">
	.st0{fill:#6CB544;}
</style>
<g>
	<path class="st0" d="M256,153.6c20.7,0,39.4-12.5,47.3-31.6c7.9-19.1,3.5-41.2-11.1-55.8c-14.6-14.6-36.7-19-55.8-11.1
		c-19.1,7.9-31.6,26.6-31.6,47.3C204.8,130.7,227.7,153.6,256,153.6L256,153.6z M256,68.3c13.8,0,26.2,8.3,31.5,21.1
		c5.3,12.8,2.4,27.4-7.4,37.2c-9.8,9.8-24.4,12.7-37.2,7.4c-12.8-5.3-21.1-17.7-21.1-31.5C221.9,83.6,237.1,68.3,256,68.3L256,68.3z
		 M256,68.3"/>
	<path class="st0" d="M256,34.1c4.7,0,8.5-3.8,8.5-8.5V8.5c0-4.7-3.8-8.5-8.5-8.5c-4.7,0-8.5,3.8-8.5,8.5v17.1
		C247.5,30.3,251.3,34.1,256,34.1L256,34.1z M256,34.1"/>
	<path class="st0" d="M264.5,179.2c0-4.7-3.8-8.5-8.5-8.5c-4.7,0-8.5,3.8-8.5,8.5v17.1c0,4.7,3.8,8.5,8.5,8.5c4.7,0,8.5-3.8,8.5-8.5
		V179.2z M264.5,179.2"/>
	<path class="st0" d="M324.3,102.4c0,4.7,3.8,8.5,8.5,8.5h17.1c4.7,0,8.5-3.8,8.5-8.5s-3.8-8.5-8.5-8.5h-17.1
		C328.1,93.9,324.3,97.7,324.3,102.4L324.3,102.4z M324.3,102.4"/>
	<path class="st0" d="M195.7,54.1c3.4,3.2,8.7,3.2,12-0.1c3.3-3.3,3.3-8.6,0.1-12L195.7,30c-3.3-3.2-8.7-3.2-12,0.1
		c-3.3,3.3-3.3,8.6-0.1,12L195.7,54.1z M195.7,54.1"/>
	<path class="st0" d="M322.4,177.3c3.5,0,6.6-2.1,7.9-5.3c1.3-3.2,0.6-6.9-1.9-9.3l-12.1-12.1c-3.4-3.2-8.7-3.2-12,0.1
		c-3.3,3.3-3.3,8.6-0.1,12l12.1,12.1C317.9,176.4,320.1,177.3,322.4,177.3L322.4,177.3z M322.4,177.3"/>
	<path class="st0" d="M310.3,56.6c2.3,0,4.4-0.9,6-2.5l12.1-12.1c1.6-1.6,2.6-3.8,2.6-6.1c0-2.3-0.9-4.5-2.5-6.1
		c-1.6-1.6-3.8-2.5-6.1-2.5c-2.3,0-4.5,1-6.1,2.6l-12.1,12.1c-2.4,2.4-3.2,6.1-1.8,9.3C303.7,54.5,306.9,56.6,310.3,56.6L310.3,56.6
		z M310.3,56.6"/>
	<path class="st0" d="M195.7,150.7l-12.1,12.1c-1.6,1.6-2.6,3.8-2.6,6.1c0,2.3,0.9,4.5,2.5,6.1c1.6,1.6,3.8,2.5,6.1,2.5
		c2.3,0,4.5-1,6.1-2.6l12.1-12.1c3.2-3.4,3.2-8.7-0.1-12C204.3,147.5,199,147.4,195.7,150.7L195.7,150.7z M195.7,150.7"/>
	<path class="st0" d="M409.6,128c4.1,0,8.1-1,11.8-2.9c8.8,3.8,18.8,3.8,27.7,0c3.6,1.9,7.7,2.9,11.8,2.9
		c13.4,0,24.5-10.3,25.5-23.6c1.1-13.3-8.3-25.2-21.5-27.3c-6-10.7-17.3-17.4-29.6-17.4c-12.3,0-23.6,6.7-29.6,17.4
		c-13.2,2.1-22.6,14-21.5,27.3C385.1,117.7,396.2,128,409.6,128L409.6,128z M409.4,93.9l0.9,0.1c3.9,0.3,7.5-2,8.8-5.7
		c2.3-6.9,8.8-11.5,16-11.5c7.3,0,13.7,4.6,16,11.5c1.3,3.7,4.9,6.1,8.8,5.7l1-0.1c4.7,0.1,8.5,3.9,8.4,8.6
		c-0.1,4.7-3.9,8.5-8.6,8.4c-2.1,0-4.1-0.8-5.6-2.2c-2.9-2.6-7.2-2.9-10.5-0.7c-5.8,3.8-13.3,3.8-19,0c-3.2-2.2-7.5-1.9-10.5,0.7
		c-1.5,1.4-3.5,2.2-5.6,2.2c-4.7,0.1-8.6-3.7-8.6-8.4C400.9,97.8,404.7,93.9,409.4,93.9L409.4,93.9z M409.4,93.9"/>
	<path class="st0" d="M76.8,145.1c4.7,0,8.5-3.8,8.5-8.5c0-4.7-3.8-8.5-8.5-8.5c-4.7,0-8.5-3.8-8.5-8.5s3.8-8.5,8.5-8.5
		c4.7,0,8.5-3.8,8.5-8.5c0-12,8.4-22.5,20.1-25c11.8-2.6,23.7,3.5,28.7,14.4c1,2.1,2.8,3.8,5,4.5c2.2,0.8,4.6,0.6,6.7-0.5
		c5.8-3.1,12.9-2.5,18.2,1.5c5.3,3.9,7.8,10.6,6.5,17c-1.3,6.5-6.2,11.6-12.6,13.2c-6.4,1.6-13.1-0.6-17.3-5.7c-1.5-1.8-3.7-2.9-6-3
		c-2.3-0.1-4.6,0.7-6.3,2.3c-4.7,4.4-10.9,6.9-17.4,6.9c-4.7,0-8.5,3.8-8.5,8.5c0,4.7,3.8,8.5,8.5,8.5c8,0,15.9-2.3,22.7-6.6
		c5.8,4.3,12.8,6.6,20,6.6c18.9,0,34.1-15.3,34.1-34.1s-15.3-34.1-34.1-34.1c-2.7,0-5.3,0.3-7.9,1c-9.9-14.1-27.4-20.8-44.2-17
		c-16.8,3.8-29.7,17.4-32.6,34.3c-12,3.9-19.4,15.9-17.4,28.4C53.5,135.9,64.2,145.1,76.8,145.1L76.8,145.1z M76.8,145.1"/>
	<path class="st0" d="M343.8,198.8c-3.3,3.3-3.3,8.7,0,12.1l72.5,72.5c3.3,3.2,8.7,3.2,12-0.1c3.3-3.3,3.3-8.6,0.1-12l-72.5-72.5
		C352.6,195.4,347.2,195.4,343.8,198.8L343.8,198.8z M343.8,198.8"/>
	<path class="st0" d="M256,238.9c-4.7,0-8.5,3.8-8.5,8.5v68.3c0,4.7,3.8,8.5,8.5,8.5c4.7,0,8.5-3.8,8.5-8.5v-68.3
		C264.5,242.8,260.7,238.9,256,238.9L256,238.9z M256,238.9"/>
	<path class="st0" d="M295.2,197c-2.1,0.9-3.7,2.6-4.5,4.7c-0.8,2.1-0.7,4.5,0.2,6.5l34.1,76.8c0.9,2.1,2.6,3.7,4.7,4.5
		c2.1,0.8,4.5,0.7,6.5-0.2c2.1-0.9,3.7-2.6,4.5-4.7c0.8-2.1,0.7-4.5-0.2-6.5l-34.1-76.8c-0.9-2.1-2.6-3.7-4.7-4.5
		C299.6,196,297.3,196.1,295.2,197L295.2,197z M295.2,197"/>
	<g>
		<path class="st0" d="M65.1,451.7c1,0.4,2.1,0.6,3.2,0.6c3.5,0,6.6-2.1,7.9-5.4l17.1-42.7c1.3-3.3,0.5-7.1-2.1-9.5
			c-2.6-2.4-6.4-2.9-9.6-1.3l-14.1,7l8.7-21.8c1.8-4.4-0.4-9.3-4.8-11.1c-4.4-1.8-9.3,0.4-11.1,4.8L43.2,415
			c-1.4,3.3-0.5,7.1,2.1,9.5c2.6,2.4,6.5,2.9,9.7,1.3l14.1-7l-8.7,21.8c-0.8,2.1-0.8,4.4,0.1,6.5C61.3,449.2,63,450.8,65.1,451.7
			L65.1,451.7z M65.1,451.7"/>
		<path class="st0" d="M503.5,435.2c4.7,0,8.5-3.8,8.5-8.5V315.7c0-2.3-0.9-4.5-2.5-6.1c-1.6-1.6-3.8-2.5-6.1-2.5H298.7
			c-2.9,0-5.5,1.4-7.1,3.8L189.2,464.6c-0.2,0.3-0.3,0.7-0.5,1c-0.1,0.2-0.2,0.4-0.3,0.7c-0.4,0.9-0.6,1.9-0.6,2.9
			c0,0.1,0,0.1,0,0.2v8.5h-8.6c-4.7,0-8.5-3.8-8.5-8.5V247.5c0-14.1-11.5-25.6-25.6-25.6H85.3c-14.1,0-25.6,11.5-25.6,25.6v25.6
			H42.7c-4.7,0-8.5,3.8-8.5,8.5v25.6h-8.5C11.5,307.2,0,318.7,0,332.8v153.6C0,500.5,11.5,512,25.6,512h85.3
			c14.1,0,25.6-11.5,25.6-25.6v-76.8c0-4.7-3.8-8.5-8.5-8.5c-4.7,0-8.5,3.8-8.5,8.5v76.8c0,4.7-3.8,8.5-8.5,8.5H25.6
			c-4.7,0-8.5-3.8-8.5-8.5V332.8c0-4.7,3.8-8.5,8.5-8.5h85.3c4.7,0,8.5,3.8,8.5,8.5v42.7c0,4.7,3.8,8.5,8.5,8.5
			c4.7,0,8.5-3.8,8.5-8.5v-42.7c0-14.1-11.5-25.6-25.6-25.6h-8.5v-25.6c0-4.7-3.8-8.5-8.5-8.5H76.8v-25.6c0-4.7,3.8-8.5,8.5-8.5
			h59.7c4.7,0,8.5,3.8,8.5,8.5v221.9c0,14.1,11.5,25.6,25.6,25.6h8.5v8.5c0,4.7,3.8,8.5,8.5,8.5h307.2c4.7,0,8.5-3.8,8.5-8.5v-42.7
			c0-4.7-3.8-8.5-8.5-8.5c-4.7,0-8.5,3.8-8.5,8.5v34.1h-85.3v-23l85.3-128v82.8C494.9,431.4,498.8,435.2,503.5,435.2L503.5,435.2z
			 M85.3,307.2H51.2v-17.1h34.1V307.2z M348.7,460.8l22.7-34.1h47.8l-22.8,34.1H348.7z M280.5,460.8l22.7-34.1H351l-22.8,34.1H280.5
			z M337.4,375.5h47.8l-22.8,34.1h-47.8L337.4,375.5z M435.2,375.5h18.2l-22.7,34.1h-47.8l25.3-37.9l31.6-47.4h47.8l-22.8,34.1
			h-29.6c-4.7,0-8.5,3.8-8.5,8.5S430.5,375.5,435.2,375.5L435.2,375.5z M396.5,358.4h-47.8l22.8-34.1h47.8L396.5,358.4z
			 M303.2,324.3H351l-22.8,34.1h-47.8L303.2,324.3z M235,426.7h29.6c4.7,0,8.5-3.8,8.5-8.5c0-4.7-3.8-8.5-8.5-8.5h-18.2l22.7-34.1
			h47.8l-25.3,37.9L260,460.8h-47.8L235,426.7z M204.8,477.9h187.7v17.1H204.8V477.9z M204.8,477.9"/>
	</g>
</g>
</svg>
