<?xml version="1.0" encoding="utf-8"?>
<!-- Generator: Adobe Illustrator 24.2.3, SVG Export Plug-In . SVG Version: 6.00 Build 0)  -->
<svg version="1.1" id="Layer_1" xmlns="http://www.w3.org/2000/svg" xmlns:xlink="http://www.w3.org/1999/xlink" x="0px" y="0px"
	 viewBox="0 0 512 512" style="enable-background:new 0 0 512 512;" xml:space="preserve">
<style type="text/css">
	.st0{fill-rule:evenodd;clip-rule:evenodd;fill:#4FAAC5;}
	.st1{fill-rule:evenodd;clip-rule:evenodd;fill:#0C95A7;}
	.st2{clip-path:url(#SVGID_2_);fill-rule:evenodd;clip-rule:evenodd;fill:#1B8897;}
	.st3{fill-rule:evenodd;clip-rule:evenodd;fill:#46B9D5;}
	.st4{fill-rule:evenodd;clip-rule:evenodd;fill:#C6CECE;}
	.st5{fill-rule:evenodd;clip-rule:evenodd;fill:#795B37;}
	.st6{fill-rule:evenodd;clip-rule:evenodd;fill:#D4AA64;}
	.st7{fill-rule:evenodd;clip-rule:evenodd;fill:#B08A57;}
	.st8{fill-rule:evenodd;clip-rule:evenodd;fill:#926D45;}
	.st9{clip-path:url(#SVGID_4_);fill-rule:evenodd;clip-rule:evenodd;fill:#B08B53;}
	.st10{fill-rule:evenodd;clip-rule:evenodd;fill:#9D7449;}
	.st11{fill-rule:evenodd;clip-rule:evenodd;fill:#E7E2D8;}
	.st12{clip-path:url(#SVGID_6_);fill-rule:evenodd;clip-rule:evenodd;fill:#D2CEC4;}
	.st13{clip-path:url(#SVGID_6_);fill-rule:evenodd;clip-rule:evenodd;fill:#B4CA4F;}
	.st14{clip-path:url(#SVGID_9_);}
	.st15{clip-path:url(#SVGID_10_);fill-rule:evenodd;clip-rule:evenodd;fill:#9ABD50;}
	.st16{clip-path:url(#SVGID_12_);fill-rule:evenodd;clip-rule:evenodd;fill:#D2CEC4;}
	.st17{clip-path:url(#SVGID_15_);}
	.st18{clip-path:url(#SVGID_16_);fill-rule:evenodd;clip-rule:evenodd;fill:#9ABD50;}
	.st19{fill-rule:evenodd;clip-rule:evenodd;fill:#9ABD50;}
	.st20{fill-rule:evenodd;clip-rule:evenodd;fill:#606364;}
	.st21{fill-rule:evenodd;clip-rule:evenodd;fill:#D5DBE4;}
	.st22{clip-path:url(#SVGID_18_);fill-rule:evenodd;clip-rule:evenodd;fill:#C6CECE;}
	.st23{fill-rule:evenodd;clip-rule:evenodd;fill:#9FAAA8;}
	.st24{fill-rule:evenodd;clip-rule:evenodd;fill:#EAE9EC;}
	.st25{clip-path:url(#SVGID_20_);fill-rule:evenodd;clip-rule:evenodd;fill:#F1EFEE;}
	.st26{fill-rule:evenodd;clip-rule:evenodd;fill:#F6F4F4;}
	.st27{fill-rule:evenodd;clip-rule:evenodd;fill:#F4F1F1;}
	.st28{fill-rule:evenodd;clip-rule:evenodd;fill:#D2CEC4;}
	.st29{clip-path:url(#SVGID_22_);fill-rule:evenodd;clip-rule:evenodd;fill:#9ABD50;}
	.st30{fill-rule:evenodd;clip-rule:evenodd;fill:#8BB550;}
	.st31{fill-rule:evenodd;clip-rule:evenodd;fill:#EE813A;}
	.st32{clip-path:url(#SVGID_24_);fill-rule:evenodd;clip-rule:evenodd;fill:#F6A738;}
	.st33{fill-rule:evenodd;clip-rule:evenodd;fill:#A5AEB4;}
	.st34{fill-rule:evenodd;clip-rule:evenodd;fill:#505253;}
	.st35{fill-rule:evenodd;clip-rule:evenodd;fill:#BDC9D1;}
	.st36{fill-rule:evenodd;clip-rule:evenodd;fill:#F3F1F4;}
	.st37{fill-rule:evenodd;clip-rule:evenodd;fill:#FEF9FA;}
	.st38{clip-path:url(#SVGID_26_);fill-rule:evenodd;clip-rule:evenodd;fill:#B08B53;}
	.st39{clip-path:url(#SVGID_28_);fill-rule:evenodd;clip-rule:evenodd;fill:#43B7D6;}
	.st40{clip-path:url(#SVGID_28_);fill-rule:evenodd;clip-rule:evenodd;fill:#0086A0;}
	.st41{clip-path:url(#SVGID_31_);}
	.st42{clip-path:url(#SVGID_32_);fill-rule:evenodd;clip-rule:evenodd;fill:#42A0C0;}
	.st43{clip-path:url(#SVGID_34_);fill-rule:evenodd;clip-rule:evenodd;fill:#B2C6CD;}
	.st44{clip-path:url(#SVGID_37_);}
	.st45{clip-path:url(#SVGID_38_);fill-rule:evenodd;clip-rule:evenodd;fill:#8FB1BD;}
	.st46{clip-path:url(#SVGID_40_);fill-rule:evenodd;clip-rule:evenodd;fill:#D8E2EA;}
	.st47{clip-path:url(#SVGID_40_);fill-rule:evenodd;clip-rule:evenodd;fill:#DDE4EB;}
	.st48{clip-path:url(#SVGID_43_);}
	.st49{clip-path:url(#SVGID_44_);fill-rule:evenodd;clip-rule:evenodd;fill:#F7F6F9;}
	.st50{clip-path:url(#SVGID_46_);fill-rule:evenodd;clip-rule:evenodd;fill:#505253;}
	.st51{clip-path:url(#SVGID_46_);fill-rule:evenodd;clip-rule:evenodd;fill:#1B8897;}
	.st52{fill-rule:evenodd;clip-rule:evenodd;fill:#2CB4D3;}
	.st53{clip-path:url(#SVGID_48_);fill-rule:evenodd;clip-rule:evenodd;fill:#1C6D91;}
	.st54{fill:#EAE9EC;}
	.st55{clip-path:url(#SVGID_50_);fill-rule:evenodd;clip-rule:evenodd;fill:#FEC233;}
	.st56{fill-rule:evenodd;clip-rule:evenodd;fill:#F7F6F9;}
	.st57{fill-rule:evenodd;clip-rule:evenodd;fill:#3A3B4B;}
	.st58{clip-path:url(#SVGID_52_);fill-rule:evenodd;clip-rule:evenodd;fill:#4A5169;}
	.st59{clip-path:url(#SVGID_52_);fill-rule:evenodd;clip-rule:evenodd;fill:#5F7196;}
	.st60{fill-rule:evenodd;clip-rule:evenodd;fill:#B68655;}
	.st61{clip-path:url(#SVGID_54_);fill-rule:evenodd;clip-rule:evenodd;fill:#CFA063;}
	.st62{fill-rule:evenodd;clip-rule:evenodd;fill:#8ECFE7;}
	.st63{clip-path:url(#SVGID_56_);fill-rule:evenodd;clip-rule:evenodd;fill:#CCE9F9;}
	.st64{clip-path:url(#SVGID_58_);fill-rule:evenodd;clip-rule:evenodd;fill:#0096B5;}
	.st65{clip-path:url(#SVGID_58_);fill-rule:evenodd;clip-rule:evenodd;fill:#00A4C6;}
	.st66{clip-path:url(#SVGID_58_);fill-rule:evenodd;clip-rule:evenodd;fill:#8ECFE7;}
	.st67{clip-path:url(#SVGID_61_);}
	.st68{clip-path:url(#SVGID_62_);fill-rule:evenodd;clip-rule:evenodd;fill:#6EC5DF;}
	.st69{clip-path:url(#SVGID_64_);fill-rule:evenodd;clip-rule:evenodd;fill:#D3ECF9;}
	.st70{clip-path:url(#SVGID_64_);fill-rule:evenodd;clip-rule:evenodd;fill:#C2E4F7;}
	.st71{clip-path:url(#SVGID_67_);}
	.st72{clip-path:url(#SVGID_68_);fill-rule:evenodd;clip-rule:evenodd;fill:#E7F6FD;}
	.st73{clip-path:url(#SVGID_70_);fill-rule:evenodd;clip-rule:evenodd;fill:#ABB8BB;}
	.st74{clip-path:url(#SVGID_70_);fill-rule:evenodd;clip-rule:evenodd;fill:#C6CECE;}
	.st75{clip-path:url(#SVGID_70_);fill-rule:evenodd;clip-rule:evenodd;fill:#EAE9EC;}
	.st76{clip-path:url(#SVGID_70_);fill-rule:evenodd;clip-rule:evenodd;fill:#9FAAA8;}
	.st77{fill-rule:evenodd;clip-rule:evenodd;fill:#C2E4F7;}
	.st78{fill-rule:evenodd;clip-rule:evenodd;fill:#D3ECF9;}
	.st79{fill-rule:evenodd;clip-rule:evenodd;fill:#40B6CC;}
	.st80{fill-rule:evenodd;clip-rule:evenodd;fill:#F6A738;}
	.st81{fill-rule:evenodd;clip-rule:evenodd;fill:#A0C351;}
	.st82{fill-rule:evenodd;clip-rule:evenodd;fill:#98C052;}
	.st83{fill-rule:evenodd;clip-rule:evenodd;fill:#93BD52;}
	.st84{fill-rule:evenodd;clip-rule:evenodd;fill:#8FBC53;}
	.st85{fill-rule:evenodd;clip-rule:evenodd;fill:#85B955;}
	.st86{fill-rule:evenodd;clip-rule:evenodd;fill:#715C4D;}
	.st87{clip-path:url(#SVGID_72_);fill-rule:evenodd;clip-rule:evenodd;fill:#856C5B;}
	.st88{fill-rule:evenodd;clip-rule:evenodd;fill:#DBD5C4;}
	.st89{fill-rule:evenodd;clip-rule:evenodd;fill:#72AD4C;}
	.st90{clip-path:url(#SVGID_74_);fill-rule:evenodd;clip-rule:evenodd;fill:#84B642;}
	.st91{clip-path:url(#SVGID_74_);fill-rule:evenodd;clip-rule:evenodd;fill:#7CB444;}
	.st92{clip-path:url(#SVGID_74_);fill-rule:evenodd;clip-rule:evenodd;fill:#88B842;}
	.st93{clip-path:url(#SVGID_74_);fill-rule:evenodd;clip-rule:evenodd;fill:#8EBA42;}
	.st94{clip-path:url(#SVGID_74_);fill-rule:evenodd;clip-rule:evenodd;fill:#9ABE41;}
	.st95{clip-path:url(#SVGID_76_);fill-rule:evenodd;clip-rule:evenodd;fill:#856C5B;}
	.st96{clip-path:url(#SVGID_78_);fill-rule:evenodd;clip-rule:evenodd;fill:#84B642;}
	.st97{clip-path:url(#SVGID_78_);fill-rule:evenodd;clip-rule:evenodd;fill:#7CB444;}
	.st98{clip-path:url(#SVGID_78_);fill-rule:evenodd;clip-rule:evenodd;fill:#88B842;}
	.st99{clip-path:url(#SVGID_78_);fill-rule:evenodd;clip-rule:evenodd;fill:#8EBA42;}
	.st100{clip-path:url(#SVGID_78_);fill-rule:evenodd;clip-rule:evenodd;fill:#9ABE41;}
	.st101{fill-rule:evenodd;clip-rule:evenodd;fill:#FFFFFF;}
</style>
<g>
	<g>
		<polygon class="st0" points="196.7,448.2 0.5,334.9 0.5,383.5 196.7,496.8 196.7,448.2 		"/>
		<polygon class="st1" points="479.2,285.7 196.7,448.9 196.7,496.6 479.2,333.5 479.2,285.7 		"/>
	</g>
	<g>
		<defs>
			<polygon id="SVGID_1_" points="479.2,285.7 196.7,448.9 196.7,496.6 479.2,333.5 479.2,285.7 			"/>
		</defs>
		<clipPath id="SVGID_2_">
			<use xlink:href="#SVGID_1_"  style="overflow:visible;"/>
		</clipPath>
		<path class="st2" d="M188.5,493.4c22-6.3,27.3-23.6,44.5-35.1c10.5-7,24.7-7.3,34.3-14.6c5.6-4.3,12.6-9.8,17.4-15
			c4-4.3,5.8-11.2,11-14.1c7-3.9,17.4-3.8,25.2-5.1c16.4-2.7,33.8-11,47.2-20.4c39.9-28.1,37.1-58.7,97.1-65.8
			c8-0.9,16.1-6.2,24.2-3.3c11.8,4.2,7.3,20,4.1,28.2c-28.4,70.9-112.7,89-174.9,117.6c-9.6,4.4-19.3,8.7-28.5,13.9
			c-29.3,16.6-52.2,40.3-88.7,36.7c-6.9-0.7-7.8-13.6-15.4-13.6"/>
	</g>
	<g>
		<polygon class="st3" points="389.7,249.7 189.4,365.3 267.3,410.3 467.5,294.6 389.7,249.7 		"/>
		<path class="st4" d="M299.2,391.9l-102.3,59.1L0,337.2l282.4-163l196.9,113.7l-106.6,61.5l-17-0.5l-17-3.6l-1,0.1
			c-0.6-0.8-1.5-1.6-2.6-2.2c-4.9-2.8-12.7-2.8-17.6,0c-2.4,1.4-3.6,3.2-3.6,5l0,0v32.4L299.2,391.9L299.2,391.9z"/>
		<polygon class="st5" points="338,269.9 313,269.9 313,420 338,404.8 338,269.9 		"/>
		<polygon class="st6" points="355.3,290.9 373,290.9 373,349.2 355.3,348.8 349.6,296.8 355.3,290.9 		"/>
		<polygon class="st7" points="355.3,348.8 355.3,290.6 337.2,286.6 337.2,345.3 355.3,348.8 		"/>
		<polygon class="st8" points="300.1,333 196.7,392.7 196.7,451 300.1,391.3 300.1,333 		"/>
	</g>
	<g>
		<defs>
			<polygon id="SVGID_3_" points="300.1,333 196.7,392.7 196.7,451 300.1,391.3 300.1,333 			"/>
		</defs>
		<clipPath id="SVGID_4_">
			<use xlink:href="#SVGID_3_"  style="overflow:visible;"/>
		</clipPath>
		<path class="st9" d="M197.4,436.3c1.8-6.1,29.2-24.7,35-32.4c5.9-7.8,8.3-20,16.3-25.9c8-5.8,18.1-7.4,26-12.9
			c4.8-3.3,12-7.5,15.3-12.5c2-2.9,3-7.2,5.4-9.6c1.5-1.5,5.5-2,6.4-3.7c1-1.9-0.6-4.2-1.4-5.9c-8.6-17.2-79.6,8.4-90.1,11.8
			c-9.4,3.1-18.9,7-27.7,11.4c-3.1,1.6-6.1,3.2-8.9,5.4c-1.3,1-4.6,4.3-3.2,3.6"/>
	</g>
	<g>
		<polygon class="st10" points="313.7,320 313.7,380.6 300.1,391.3 299.4,333.6 313.7,320 		"/>
		<path class="st11" d="M299.2,333.5l-102.3,59.1L0,278.9l282.4-163l196.9,113.7l-106.6,61.5l-17-0.5l-17-3.6l-1,0.1
			c-0.6-0.8-1.5-1.6-2.6-2.2c-4.9-2.8-12.7-2.8-17.6,0c-2.4,1.4-3.6,3.2-3.6,5l0,0v32.4L299.2,333.5L299.2,333.5z"/>
	</g>
	<g>
		<defs>
			<path id="SVGID_5_" d="M299.2,333.5l-102.3,59.1L0,278.9l282.4-163l196.9,113.7l-106.6,61.5l-17-0.5l-17-3.6l-1,0.1
				c-0.6-0.8-1.5-1.6-2.6-2.2c-4.9-2.8-12.7-2.8-17.6,0c-2.4,1.4-3.6,3.2-3.6,5l0,0v32.4L299.2,333.5L299.2,333.5z"/>
		</defs>
		<clipPath id="SVGID_6_">
			<use xlink:href="#SVGID_5_"  style="overflow:visible;"/>
		</clipPath>
		<path class="st12" d="M199.9,275.6L174,290.6c-0.7,0.4-1.5,0.2-1.9-0.5c-0.4-0.7-0.2-1.5,0.5-1.9l26.6-15.3c0.4-0.2,1-0.2,1.4,0
			l19.9,11.2l41.5,12.8c0.1,0,0.2,0.1,0.3,0.2l10.5,6.6l32.7-18.6c0.4-0.2,0.9-0.2,1.4,0l8.5,4.7c0.7,0.4,0.9,1.2,0.5,1.9
			c-0.4,0.7-1.2,0.9-1.9,0.5l-7.8-4.3l-32.7,18.6c-0.4,0.3-1,0.2-1.4,0l-11-7l-41.4-12.8c-0.1,0-0.2-0.1-0.3-0.1L199.9,275.6
			L199.9,275.6z"/>
		<path class="st13" d="M124,353.8c12.3-9.7,26.9-10.7,41.6-15.3c36.2-11.5,91.6-28.8,85.3-76.9c-2-15.1,2.9-19.1,16.8-20.5
			c3-0.3,6.2-0.1,9.2-0.1c22,0,43.5,4.6,65.6,3.1c24.1-1.6,91.3-21.9,91.3-51.1c0-3.3,0.5-7.3-1.6-10.1c-7.7-10.5-18.8-23.8-30-30.4
			c-10-5.9-21.5-8.4-31.6-13.6c-22.7-11.8-51.7-25-77.5-25.8c-64.8-2.1-133.6,47.6-184.5,83.1c-12.4,8.6-26,15.7-37.8,25.1
			c-9.8,7.8-18.1,17.4-28,25.1c-9.6,7.4-19.9,13.7-29,21.8c-11,9.7-18.5,31.3-16.1,45.5c2.9,17.6,34.8,46.8,51.4,52.2
			c11.3,3.7,23.7,9.1,35.7,9.8c1.6,0.1,2,0.5,2-1"/>
		<path class="st12" d="M398.3,242.7l55.3-31.9c1.3-0.7,3-0.3,3.7,1c0.7,1.3,0.3,3-1,3.7l-56.7,32.7c-0.8,0.5-1.9,0.5-2.7,0
			l-49.3-28.5c-1.3-0.7-1.7-2.4-1-3.7c0.7-1.3,2.4-1.7,3.7-1L398.3,242.7L398.3,242.7z"/>
	</g>
	<g>
		<defs>
			<path id="SVGID_7_" d="M398.3,242.7l55.3-31.9c1.3-0.7,3-0.3,3.7,1c0.7,1.3,0.3,3-1,3.7l-56.7,32.7c-0.8,0.5-1.9,0.5-2.7,0
				l-49.3-28.5c-1.3-0.7-1.7-2.4-1-3.7c0.7-1.3,2.4-1.7,3.7-1L398.3,242.7L398.3,242.7z"/>
		</defs>
		<defs>
			<path id="SVGID_8_" d="M299.2,333.5l-102.3,59.1L0,278.9l282.4-163l196.9,113.7l-106.6,61.5l-17-0.5l-17-3.6l-1,0.1
				c-0.6-0.8-1.5-1.6-2.6-2.2c-4.9-2.8-12.7-2.8-17.6,0c-2.4,1.4-3.6,3.2-3.6,5l0,0v32.4L299.2,333.5L299.2,333.5z"/>
		</defs>
		<clipPath id="SVGID_9_">
			<use xlink:href="#SVGID_7_"  style="overflow:visible;"/>
		</clipPath>
		<clipPath id="SVGID_10_" class="st14">
			<use xlink:href="#SVGID_8_"  style="overflow:visible;"/>
		</clipPath>
		<path class="st15" d="M124,353.8c12.3-9.7,26.9-10.7,41.6-15.3c36.2-11.5,91.6-28.8,85.3-76.9c-2-15.1,2.9-19.1,16.8-20.5
			c3-0.3,6.2-0.1,9.2-0.1c22,0,43.5,4.6,65.6,3.1c24.1-1.6,91.3-21.9,91.3-51.1c0-3.3,0.5-7.3-1.6-10.1c-7.7-10.5-18.8-23.8-30-30.4
			c-10-5.9-21.5-8.4-31.6-13.6c-22.7-11.8-51.7-25-77.5-25.8c-64.8-2.1-133.6,47.6-184.5,83.1c-12.4,8.6-26,15.7-37.8,25.1
			c-9.8,7.8-18.1,17.4-28,25.1c-9.6,7.4-19.9,13.7-29,21.8c-11,9.7-18.5,31.3-16.1,45.5c2.9,17.6,34.8,46.8,51.4,52.2
			c11.3,3.7,23.7,9.1,35.7,9.8c1.6,0.1,2,0.5,2-1"/>
	</g>
	<g>
		<defs>
			<path id="SVGID_11_" d="M299.2,333.5l-102.3,59.1L0,278.9l282.4-163l196.9,113.7l-106.6,61.5l-17-0.5l-17-3.6l-1,0.1
				c-0.6-0.8-1.5-1.6-2.6-2.2c-4.9-2.8-12.7-2.8-17.6,0c-2.4,1.4-3.6,3.2-3.6,5l0,0v32.4L299.2,333.5L299.2,333.5z"/>
		</defs>
		<clipPath id="SVGID_12_">
			<use xlink:href="#SVGID_11_"  style="overflow:visible;"/>
		</clipPath>
		<path class="st16" d="M369.3,259l-42.5-24.5c-1.3-0.8-1.8-2.5-1-3.8c0.8-1.3,2.5-1.8,3.8-1l46.7,26.9c0.9,0.5,1.4,1.4,1.4,2.4
			c0,1-0.5,1.9-1.4,2.4l-46.7,26.9c-1.3,0.8-3,0.3-3.8-1c-0.8-1.3-0.3-3,1-3.8L369.3,259L369.3,259z"/>
	</g>
	<g>
		<defs>
			<path id="SVGID_13_" d="M369.3,259l-42.5-24.5c-1.3-0.8-1.8-2.5-1-3.8c0.8-1.3,2.5-1.8,3.8-1l46.7,26.9c0.9,0.5,1.4,1.4,1.4,2.4
				c0,1-0.5,1.9-1.4,2.4l-46.7,26.9c-1.3,0.8-3,0.3-3.8-1c-0.8-1.3-0.3-3,1-3.8L369.3,259L369.3,259z"/>
		</defs>
		<defs>
			<path id="SVGID_14_" d="M299.2,333.5l-102.3,59.1L0,278.9l282.4-163l196.9,113.7l-106.6,61.5l-17-0.5l-17-3.6l-1,0.1
				c-0.6-0.8-1.5-1.6-2.6-2.2c-4.9-2.8-12.7-2.8-17.6,0c-2.4,1.4-3.6,3.2-3.6,5l0,0v32.4L299.2,333.5L299.2,333.5z"/>
		</defs>
		<clipPath id="SVGID_15_">
			<use xlink:href="#SVGID_13_"  style="overflow:visible;"/>
		</clipPath>
		<clipPath id="SVGID_16_" class="st17">
			<use xlink:href="#SVGID_14_"  style="overflow:visible;"/>
		</clipPath>
		<path class="st18" d="M124,353.8c12.3-9.7,26.9-10.7,41.6-15.3c36.2-11.5,91.6-28.8,85.3-76.9c-2-15.1,2.9-19.1,16.8-20.5
			c3-0.3,6.2-0.1,9.2-0.1c22,0,43.5,4.6,65.6,3.1c24.1-1.6,91.3-21.9,91.3-51.1c0-3.3,0.5-7.3-1.6-10.1c-7.7-10.5-18.8-23.8-30-30.4
			c-10-5.9-21.5-8.4-31.6-13.6c-22.7-11.8-51.7-25-77.5-25.8c-64.8-2.1-133.6,47.6-184.5,83.1c-12.4,8.6-26,15.7-37.8,25.1
			c-9.8,7.8-18.1,17.4-28,25.1c-9.6,7.4-19.9,13.7-29,21.8c-11,9.7-18.5,31.3-16.1,45.5c2.9,17.6,34.8,46.8,51.4,52.2
			c11.3,3.7,23.7,9.1,35.7,9.8c1.6,0.1,2,0.5,2-1"/>
	</g>
	<g>
		<path class="st19" d="M243.4,165.2c28.1-16.2,74.8-15.5,104.4,1.5c29.5,17,30.7,44,2.7,60.3c-28.1,16.2-74.8,15.5-104.4-1.5
			C216.5,208.4,215.4,181.4,243.4,165.2L243.4,165.2z"/>
		<path class="st20" d="M248.7,99.1l44.3-23c0.6-0.3,1.2-0.1,1.6,0.4l23.2,32.6l15-6.8l5.1-3c0.5-0.3,1-0.3,1.5-0.1
			c0.5,0.2,0.8,0.7,0.9,1.2l8.8,51.9c0,0.1,0.1,0.2,0.1,0.2l0,0l0,0l0,0l0,0l0,0l0,0l0,0l0,0l0,0l0,0l0,0l0,0l0,0l0,0l0,0l0,0l0,0
			l0,0l0,0l0,0l0,0l0,0l0,0l0,0c0,0,0,0.1,0,0.1l0,0l0,0l0,0v0l0,0l0,0v0v0v0v0v0l0,0l0,0l0,0l0,0l0,0c0,0,0,0.1,0,0.1l6.1,36.1
			c0,0.1,0,0.1,0,0.2l0,0l0,0l0,0c0,0.1,0,0.2,0,0.3c0.1,0.8-0.5,1.6-1.3,1.7c-0.2,0-0.3,0-0.5,0L295,225.1c-0.2,0.6-0.8,1-1.5,1
			s-1.2-0.4-1.5-1l-58.5-33.8c-0.2,0-0.4,0-0.6,0c-0.9-0.2-1.5-1-1.4-1.9l15.1-89C246.9,99.5,247.7,98.9,248.7,99.1
			C248.6,99.1,248.6,99.1,248.7,99.1L248.7,99.1z M267.3,187.9l24.6,32.4v-34.7L267.3,187.9L267.3,187.9z M295.1,220.3l24.6-32.5
			l-24.6-2.1V220.3L295.1,220.3z M298.3,220.3l51.7-29.9l-27.3-2.4L298.3,220.3L298.3,220.3z M237.3,190.6l51.4,29.7l-24.4-32.1
			L237.3,190.6L237.3,190.6z M256.4,177.8L238.8,188l23.7-2.1L256.4,177.8L256.4,177.8z M324.5,185.7l23.3,2l-17.3-10L324.5,185.7
			L324.5,185.7z M332,175.7l19.7,11.4l-5.2-30.5L332,175.7L332,175.7z M235.4,187l19.5-11.3l-14.4-19L235.4,187L235.4,187z
			 M289.4,183.4l-21.3-12.3l-9.5,5.5l6.8,9L289.4,183.4L289.4,183.4z M297.6,183.4l23.9,2.1l6.8-9l-9.4-5.4L297.6,183.4L297.6,183.4
			z M270.6,169.6l19.6,11.3l-9.3-17.3L270.6,169.6L270.6,169.6z M295.1,180.8l9.7-17.9l-9.7-5.6V180.8L295.1,180.8z M298.4,180
			l17.9-10.4l-9.4-5.4L298.4,180L298.4,180z M283.1,162.4l8.8,16.3v-21.3L283.1,162.4L283.1,162.4z M257.1,174.5l8.5-4.9l-21.7-12.5
			L257.1,174.5L257.1,174.5z M321.4,169.6l8.4,4.8l13-17.2L321.4,169.6L321.4,169.6z M241.7,152.9l26.4,15.3l11.6-6.7l-11.5-21.2
			L241.7,152.9L241.7,152.9z M308.2,162l10.7,6.2l26.2-15.1l-1.1-0.6l-24.3-11.5L308.2,162L308.2,162z M295.1,129.2v25.2l10.9,6.3
			l11.4-20.9l-22.2-10.5C295.2,129.2,295.2,129.2,295.1,129.2L295.1,129.2z M291.9,129.1c-0.3,0.4-0.8,0.6-1.2,0.5l-20.1,9.6
			l11.4,21l10-5.8V129.1L291.9,129.1z M241.7,149.9l24.3-14l-16.7-30.8L241.7,149.9L241.7,149.9z M322.1,136.5l20.6,11.9l-15.4-21.6
			L322.1,136.5L322.1,136.5z M328.7,124.4l16.2,22.7l-6.8-40.1L328.7,124.4L328.7,124.4z M296.4,127l22,10.4l-19.9-11.6L296.4,127
			L296.4,127z M269.3,136.9L269.3,136.9l18.8-8.9l-1.6-1L269.3,136.9L269.3,136.9z M301,124.3l18.9,10.9l5.8-10.7l-7.4-10.3
			L301,124.3L301,124.3z M268.1,134.7l16-9.2l-32.3-20.9L268.1,134.7L268.1,134.7z M295.3,123.9l-1.8-1l-4.5,2.6l1.8,1.2l1.3-0.6
			c0.1-0.3,0.4-0.5,0.6-0.7L295.3,123.9L295.3,123.9z M293,120.3l22.4-10.2l-22.3-31.3l-42.3,21.9l35.8,23.2l6.3-3.6
			C292.9,120.4,292.9,120.4,293,120.3L293,120.3L293,120.3L293,120.3L293,120.3L293,120.3L293,120.3L293,120.3L293,120.3L293,120.3
			C293,120.3,293,120.3,293,120.3L293,120.3z M296.3,121.6l1.5,0.9l12.6-7.3L296.3,121.6L296.3,121.6z M320.6,113l6.5,9.1l10.2-18.7
			L320.6,113L320.6,113z"/>
		<path class="st20" d="M228.5,188.3c2.6-1.5,6.9-1.5,9.5,0c2.6,1.5,2.6,4,0,5.5c-2.6,1.5-6.9,1.5-9.5,0
			C225.9,192.3,225.9,189.8,228.5,188.3L228.5,188.3z"/>
		<path class="st20" d="M289,223.1c2.6-1.5,6.9-1.5,9.5,0c2.6,1.5,2.6,4,0,5.5c-2.6,1.5-6.9,1.5-9.5,0
			C286.3,227.1,286.3,224.6,289,223.1L289,223.1z"/>
		<path class="st20" d="M348.1,187.4c2.6-1.5,6.9-1.5,9.5,0c2.6,1.5,2.6,4,0,5.5c-2.6,1.5-6.9,1.5-9.5,0
			C345.5,191.4,345.5,189,348.1,187.4L348.1,187.4z"/>
		<path class="st20" d="M289.6,154.4c2.3-1.3,6-1.3,8.3,0c2.3,1.3,2.3,3.5,0,4.8c-2.3,1.3-6,1.3-8.3,0
			C287.3,157.8,287.3,155.7,289.6,154.4L289.6,154.4z"/>
		<path class="st21" d="M233.2,96.2V51.8h120.5v44.3h0c-0.4,8.6-6.3,17.1-17.6,23.6c-23.5,13.6-61.7,13.6-85.3,0
			C239.5,113.3,233.7,104.7,233.2,96.2L233.2,96.2L233.2,96.2z"/>
	</g>
	<g>
		<defs>
			<path id="SVGID_17_" d="M233.2,96.2V51.8h120.5v44.3h0c-0.4,8.6-6.3,17.1-17.6,23.6c-23.5,13.6-61.7,13.6-85.3,0
				C239.5,113.3,233.7,104.7,233.2,96.2L233.2,96.2L233.2,96.2z"/>
		</defs>
		<clipPath id="SVGID_18_">
			<use xlink:href="#SVGID_17_"  style="overflow:visible;"/>
		</clipPath>
		<polygon class="st22" points="378.7,14.3 318,14.3 318,162.8 378.7,162.8 378.7,14.3 		"/>
	</g>
	<g>
		<path class="st23" d="M337.4,106.3c1.7-1,3-0.2,3,1.7c0,1.9-1.3,4.2-3,5.2c-1.7,1-3,0.2-3-1.7
			C334.4,109.6,335.7,107.3,337.4,106.3L337.4,106.3z"/>
		<path class="st24" d="M337.8,106.6c1.7-1,3-0.2,3,1.7s-1.3,4.2-3,5.2c-1.7,1-3,0.2-3-1.7C334.8,109.9,336.1,107.5,337.8,106.6
			L337.8,106.6z"/>
		<path class="st24" d="M250.9,25.4c23.5-13.6,61.7-13.6,85.3,0c23.5,13.6,23.5,35.6,0,49.2c-23.5,13.6-61.7,13.6-85.3,0
			S227.4,39,250.9,25.4L250.9,25.4z"/>
	</g>
	<g>
		<defs>
			<path id="SVGID_19_" d="M250.9,25.4c23.5-13.6,61.7-13.6,85.3,0c23.5,13.6,23.5,35.6,0,49.2c-23.5,13.6-61.7,13.6-85.3,0
				S227.4,39,250.9,25.4L250.9,25.4z"/>
		</defs>
		<clipPath id="SVGID_20_">
			<use xlink:href="#SVGID_19_"  style="overflow:visible;"/>
		</clipPath>
		<polyline class="st25" points="311.2,56.7 318.5,83.5 344.8,81.8 355,52.4 334.3,39.5 311.2,56.7 		"/>
	</g>
	<g>
		<path class="st26" d="M263.4,22.4c16.6-9.6,43.6-9.6,60.3,0c16.6,9.6,16.6,25.2,0,34.8c-16.6,9.6-43.6,9.6-60.3,0
			C246.7,47.6,246.7,32,263.4,22.4L263.4,22.4z"/>
		<path class="st27" d="M281.6,33c6.6-3.8,17.2-3.8,23.8,0c6.6,3.8,6.6,10,0,13.8c-6.6,3.8-17.2,3.8-23.8,0
			C275,42.9,275,36.8,281.6,33L281.6,33z"/>
		<path class="st4" d="M289,36.5c2.3-1.3,5.9-1.3,8.2,0c2.3,1.3,2.3,3.4,0,4.7c-2.3,1.3-5.9,1.3-8.2,0
			C286.8,39.9,286.8,37.8,289,36.5L289,36.5z"/>
		<path class="st24" d="M289,35.6c2.3-1.3,5.9-1.3,8.2,0c2.3,1.3,2.3,3.4,0,4.7c-2.3,1.3-5.9,1.3-8.2,0
			C286.8,39.1,286.8,36.9,289,35.6L289,35.6z"/>
		<polygon class="st28" points="245.4,272.8 214.2,290.8 249.3,311.1 280.5,293.1 245.4,272.8 		"/>
	</g>
	<g>
		<defs>
			<polygon id="SVGID_21_" points="245.4,272.8 214.2,290.8 249.3,311.1 280.5,293.1 245.4,272.8 			"/>
		</defs>
		<clipPath id="SVGID_22_">
			<use xlink:href="#SVGID_21_"  style="overflow:visible;"/>
		</clipPath>
		<path class="st29" d="M124,353.8c12.3-9.7,26.9-10.7,41.6-15.3c36.2-11.5,91.6-28.8,85.3-76.9c-2-15.1,2.9-19.1,16.8-20.5
			c3-0.3,6.2-0.1,9.2-0.1c22,0,43.5,4.6,65.6,3.1c24.1-1.6,91.3-21.9,91.3-51.1c0-3.3,0.5-7.3-1.6-10.1c-7.7-10.5-18.8-23.8-30-30.4
			c-10-5.9-21.5-8.4-31.6-13.6c-22.7-11.8-51.7-25-77.5-25.8c-64.8-2.1-133.6,47.6-184.5,83.1c-12.4,8.6-26,15.7-37.8,25.1
			c-9.8,7.8-18.1,17.4-28,25.1c-9.6,7.4-19.9,13.7-29,21.8c-11,9.7-18.5,31.3-16.1,45.5c2.9,17.6,34.8,46.8,51.4,52.2
			c11.3,3.7,23.7,9.1,35.7,9.8c1.6,0.1,2,0.5,2-1"/>
	</g>
	<g>
		<polygon class="st30" points="102.1,224.7 22.4,270.7 130.8,333.3 210.6,287.3 102.1,224.7 		"/>
		<path class="st31" d="M201.2,265.6l-36.4,21c-0.4,0.2-0.9,0.2-1.3,0c-0.4-0.2-0.7-0.7-0.7-1.1v-27.7c0-0.7,0.6-1.3,1.3-1.3
			c0.7,0,1.3,0.6,1.3,1.3v25.4l35.1-20.3c0.4-0.2,0.9-0.2,1.3,0l38.4,22.2c0.6,0.4,0.8,1.2,0.5,1.8c-0.4,0.6-1.2,0.8-1.8,0.5
			L201.2,265.6L201.2,265.6z"/>
	</g>
	<g>
		<defs>
			<path id="SVGID_23_" d="M201.2,265.6l-36.4,21c-0.4,0.2-0.9,0.2-1.3,0c-0.4-0.2-0.7-0.7-0.7-1.1v-27.7c0-0.7,0.6-1.3,1.3-1.3
				c0.7,0,1.3,0.6,1.3,1.3v25.4l35.1-20.3c0.4-0.2,0.9-0.2,1.3,0l38.4,22.2c0.6,0.4,0.8,1.2,0.5,1.8c-0.4,0.6-1.2,0.8-1.8,0.5
				L201.2,265.6L201.2,265.6z"/>
		</defs>
		<clipPath id="SVGID_24_">
			<use xlink:href="#SVGID_23_"  style="overflow:visible;"/>
		</clipPath>
		<path class="st32" d="M164,275.4c1.5,0,2.7,1.2,2.7,2.7c0,1.5-1.2,2.7-2.7,2.7c-1.5,0-2.7-1.2-2.7-2.7
			C161.3,276.6,162.5,275.4,164,275.4L164,275.4z"/>
		<path class="st32" d="M170.9,278.5c1.5,0,2.7,1.2,2.7,2.7c0,1.5-1.2,2.7-2.7,2.7c-1.5,0-2.7-1.2-2.7-2.7
			C168.2,279.7,169.4,278.5,170.9,278.5L170.9,278.5z"/>
		<path class="st32" d="M178.8,274.1c1.5,0,2.7,1.2,2.7,2.7c0,1.5-1.2,2.7-2.7,2.7c-1.5,0-2.7-1.2-2.7-2.7
			C176.1,275.3,177.3,274.1,178.8,274.1L178.8,274.1z"/>
		<path class="st32" d="M187.3,269.3c1.5,0,2.7,1.2,2.7,2.7c0,1.5-1.2,2.7-2.7,2.7c-1.5,0-2.7-1.2-2.7-2.7
			C184.6,270.5,185.8,269.3,187.3,269.3L187.3,269.3z"/>
		<path class="st32" d="M195.7,264.5c1.5,0,2.7,1.2,2.7,2.7c0,1.5-1.2,2.7-2.7,2.7c-1.5,0-2.7-1.2-2.7-2.7
			C193,265.7,194.2,264.5,195.7,264.5L195.7,264.5z"/>
		<path class="st32" d="M206.7,264.4c1.5,0,2.7,1.2,2.7,2.7c0,1.5-1.2,2.7-2.7,2.7c-1.5,0-2.7-1.2-2.7-2.7
			C204,265.6,205.3,264.4,206.7,264.4L206.7,264.4z"/>
		<path class="st32" d="M214.1,268.7c1.5,0,2.7,1.2,2.7,2.7c0,1.5-1.2,2.7-2.7,2.7c-1.5,0-2.7-1.2-2.7-2.7
			C211.4,269.9,212.6,268.7,214.1,268.7L214.1,268.7z"/>
	</g>
	<g>
		<polygon class="st24" points="248.9,287 220.3,270.4 220.3,290.3 248.9,306.8 248.9,287 		"/>
		<polygon class="st33" points="274.5,272.2 248.9,287 248.9,306.8 274.5,292 274.5,272.2 		"/>
		<path class="st34" d="M272.9,277.5c0-0.3-0.2-0.5-0.4-0.3l-0.9,0.5c-0.2,0.1-0.4,0.5-0.4,0.8v6.1c0,0.3,0.2,0.5,0.4,0.3l0.9-0.5
			c0.2-0.1,0.4-0.5,0.4-0.8V277.5L272.9,277.5z"/>
		<path class="st34" d="M269.6,279.4c0-0.3-0.2-0.5-0.4-0.3l-0.9,0.5c-0.2,0.1-0.4,0.5-0.4,0.8v6.1c0,0.3,0.2,0.5,0.4,0.3l0.9-0.5
			c0.2-0.1,0.4-0.5,0.4-0.8V279.4L269.6,279.4z"/>
		<path class="st34" d="M266.2,281.4c0-0.3-0.2-0.5-0.4-0.3l-0.9,0.5c-0.2,0.1-0.4,0.5-0.4,0.8v6.1c0,0.3,0.2,0.5,0.4,0.3l0.9-0.5
			c0.2-0.1,0.4-0.5,0.4-0.8V281.4L266.2,281.4z"/>
		<polygon class="st35" points="245.8,288.5 245.8,291.3 277.4,272.7 277.4,264.7 245.8,288.5 		"/>
		<polygon class="st36" points="245.8,288.4 217.4,272 217.4,274.9 245.8,291.3 245.8,288.4 		"/>
		<polygon class="st37" points="277.4,264.7 245.8,288.5 217.4,272.3 248.6,247.9 277.4,264.7 		"/>
		<polygon class="st8" points="479.2,229.5 373,290.9 373,332.6 385.5,342 479.2,287.9 479.2,229.5 		"/>
	</g>
	<g>
		<defs>
			<polygon id="SVGID_25_" points="479.2,229.5 373,290.9 373,332.6 385.5,342 479.2,287.9 479.2,229.5 			"/>
		</defs>
		<clipPath id="SVGID_26_">
			<use xlink:href="#SVGID_25_"  style="overflow:visible;"/>
		</clipPath>
		<path class="st38" d="M370.7,300.3c18.2,6.7,38.6-9.8,55.9-12.9c7.9-1.4,12.8,5,20.9,0.3c8.8-5,11.5-20.2,18.1-23
			c4.7-2,17.8,1.5,19.1,0.1c8.3-9.4,12.5-51.5-8-47.7c-14.9,2.7-37.7,21.5-54.1,27.6c-4.5,1.7-62.9,29-63.3,29.6"/>
	</g>
	<g>
		<path class="st1" d="M313.7,314.3c0.6-0.6,1.3-1.1,2.1-1.6c5.5-3.2,14.3-3.2,19.8,0c0.5,0.3,1,0.6,1.4,1l0.1,0l18.1-1.5l17.7,7.4
			l30.8,57.3l-144,82.4l-1.7-43.8l41.9-67.2l13.6-12.1V314.3L313.7,314.3z"/>
	</g>
	<g>
		<defs>
			<path id="SVGID_27_" d="M313.7,314.3c0.6-0.6,1.3-1.1,2.1-1.6c5.5-3.2,14.3-3.2,19.8,0c0.5,0.3,1,0.6,1.4,1l0.1,0l18.1-1.5
				l17.7,7.4l30.8,57.3l-144,82.4l-1.7-43.8l41.9-67.2l13.6-12.1V314.3L313.7,314.3z"/>
		</defs>
		<clipPath id="SVGID_28_">
			<use xlink:href="#SVGID_27_"  style="overflow:visible;"/>
		</clipPath>
		<polygon class="st39" points="373,320.1 267.3,381.1 292.7,312 323.8,290.1 367.4,294.1 382,306.4 373,320.1 		"/>
		<polygon class="st40" points="338,269.9 313,269.9 313,436.5 338,419.7 338,269.9 		"/>
	</g>
	<g>
		<defs>
			<polygon id="SVGID_29_" points="338,269.9 313,269.9 313,436.5 338,419.7 338,269.9 			"/>
		</defs>
		<defs>
			<path id="SVGID_30_" d="M313.7,314.3c0.6-0.6,1.3-1.1,2.1-1.6c5.5-3.2,14.3-3.2,19.8,0c0.5,0.3,1,0.6,1.4,1l0.1,0l18.1-1.5
				l17.7,7.4l30.8,57.3l-144,82.4l-1.7-43.8l41.9-67.2l13.6-12.1V314.3L313.7,314.3z"/>
		</defs>
		<clipPath id="SVGID_31_">
			<use xlink:href="#SVGID_29_"  style="overflow:visible;"/>
		</clipPath>
		<clipPath id="SVGID_32_" class="st41">
			<use xlink:href="#SVGID_30_"  style="overflow:visible;"/>
		</clipPath>
		<polygon class="st42" points="373,320.1 267.3,381.1 292.7,312 323.8,290.1 367.4,294.1 382,306.4 373,320.1 		"/>
	</g>
	<g>
		<defs>
			<path id="SVGID_33_" d="M313.7,314.3c0.6-0.6,1.3-1.1,2.1-1.6c5.5-3.2,14.3-3.2,19.8,0c0.5,0.3,1,0.6,1.4,1l0.1,0l18.1-1.5
				l17.7,7.4l30.8,57.3l-144,82.4l-1.7-43.8l41.9-67.2l13.6-12.1V314.3L313.7,314.3z"/>
		</defs>
		<clipPath id="SVGID_34_">
			<use xlink:href="#SVGID_33_"  style="overflow:visible;"/>
		</clipPath>
		<path class="st43" d="M336.1,399.7c0,1.5-1,3-3,4.2c-4,2.3-10.5,2.3-14.5,0c-2-1.2-3-2.7-3-4.2v-49.9h20.5V399.7L336.1,399.7z"/>
	</g>
	<g>
		<defs>
			<path id="SVGID_35_" d="M336.1,399.7c0,1.5-1,3-3,4.2c-4,2.3-10.5,2.3-14.5,0c-2-1.2-3-2.7-3-4.2v-49.9h20.5V399.7L336.1,399.7z"
				/>
		</defs>
		<defs>
			<path id="SVGID_36_" d="M313.7,314.3c0.6-0.6,1.3-1.1,2.1-1.6c5.5-3.2,14.3-3.2,19.8,0c0.5,0.3,1,0.6,1.4,1l0.1,0l18.1-1.5
				l17.7,7.4l30.8,57.3l-144,82.4l-1.7-43.8l41.9-67.2l13.6-12.1V314.3L313.7,314.3z"/>
		</defs>
		<clipPath id="SVGID_37_">
			<use xlink:href="#SVGID_35_"  style="overflow:visible;"/>
		</clipPath>
		<clipPath id="SVGID_38_" class="st44">
			<use xlink:href="#SVGID_36_"  style="overflow:visible;"/>
		</clipPath>
		<polygon class="st45" points="343.4,335.5 328.4,335.5 328.4,418.6 343.4,418.6 343.4,335.5 		"/>
	</g>
	<g>
		<defs>
			<path id="SVGID_39_" d="M313.7,314.3c0.6-0.6,1.3-1.1,2.1-1.6c5.5-3.2,14.3-3.2,19.8,0c0.5,0.3,1,0.6,1.4,1l0.1,0l18.1-1.5
				l17.7,7.4l30.8,57.3l-144,82.4l-1.7-43.8l41.9-67.2l13.6-12.1V314.3L313.7,314.3z"/>
		</defs>
		<clipPath id="SVGID_40_">
			<use xlink:href="#SVGID_39_"  style="overflow:visible;"/>
		</clipPath>
		<path class="st46" d="M315.6,379.8c0,1.5,1,3,3,4.2c4,2.3,10.5,2.3,14.5,0c2-1.2,3-2.7,3-4.2v6.8c0,1.5-1,3-3,4.2
			c-4,2.3-10.5,2.3-14.5,0c-2-1.2-3-2.7-3-4.2V379.8L315.6,379.8z"/>
		<path class="st46" d="M315.6,369.7c0,1.5,1,3,3,4.2c4,2.3,10.5,2.3,14.5,0c2-1.2,3-2.7,3-4.2v6.8c0,1.5-1,3-3,4.2
			c-4,2.3-10.5,2.3-14.5,0c-2-1.2-3-2.7-3-4.2V369.7L315.6,369.7z"/>
		<path class="st47" d="M318.6,345.6c4-2.3,10.5-2.3,14.5,0c4,2.3,4,6,0,8.4c-4,2.3-10.5,2.3-14.5,0
			C314.6,351.7,314.6,347.9,318.6,345.6L318.6,345.6z"/>
	</g>
	<g>
		<defs>
			<path id="SVGID_41_" d="M318.6,345.6c4-2.3,10.5-2.3,14.5,0c4,2.3,4,6,0,8.4c-4,2.3-10.5,2.3-14.5,0
				C314.6,351.7,314.6,347.9,318.6,345.6L318.6,345.6z"/>
		</defs>
		<defs>
			<path id="SVGID_42_" d="M313.7,314.3c0.6-0.6,1.3-1.1,2.1-1.6c5.5-3.2,14.3-3.2,19.8,0c0.5,0.3,1,0.6,1.4,1l0.1,0l18.1-1.5
				l17.7,7.4l30.8,57.3l-144,82.4l-1.7-43.8l41.9-67.2l13.6-12.1V314.3L313.7,314.3z"/>
		</defs>
		<clipPath id="SVGID_43_">
			<use xlink:href="#SVGID_41_"  style="overflow:visible;"/>
		</clipPath>
		<clipPath id="SVGID_44_" class="st48">
			<use xlink:href="#SVGID_42_"  style="overflow:visible;"/>
		</clipPath>
		<polygon class="st49" points="373,320.1 267.3,381.1 292.7,312 323.8,290.1 367.4,294.1 382,306.4 373,320.1 		"/>
	</g>
	<g>
		<defs>
			<path id="SVGID_45_" d="M313.7,314.3c0.6-0.6,1.3-1.1,2.1-1.6c5.5-3.2,14.3-3.2,19.8,0c0.5,0.3,1,0.6,1.4,1l0.1,0l18.1-1.5
				l17.7,7.4l30.8,57.3l-144,82.4l-1.7-43.8l41.9-67.2l13.6-12.1V314.3L313.7,314.3z"/>
		</defs>
		<clipPath id="SVGID_46_">
			<use xlink:href="#SVGID_45_"  style="overflow:visible;"/>
		</clipPath>
		<path class="st50" d="M317.9,346.7c0.8-0.4,2-0.4,2.8,0c0.8,0.4,0.8,1.2,0,1.6c-0.8,0.4-2,0.4-2.8,0
			C317.1,347.9,317.1,347.2,317.9,346.7L317.9,346.7z"/>
		<path class="st51" d="M188.5,493.4c22-6.3,27.3-23.6,44.5-35.1c10.5-7,24.7-7.3,34.3-14.6c5.6-4.3,12.6-9.8,17.4-15
			c4-4.3,5.8-11.2,11-14.1c7-3.9,17.4-3.8,25.2-5.1c16.4-2.7,33.8-11,47.2-20.4c39.9-28.1,37.1-58.7,97.1-65.8
			c8-0.9,16.1-6.2,24.2-3.3c11.8,4.2,7.3,20,4.1,28.2c-28.4,70.9-112.7,89-174.9,117.6c-9.6,4.4-19.3,8.7-28.5,13.9
			c-29.3,16.6-52.2,40.3-88.7,36.7c-6.9-0.7-7.8-13.6-15.4-13.6"/>
	</g>
	<g>
		<path class="st34" d="M264.8,293.4c0.6-0.3,1.1-0.1,1.1,0.6s-0.5,1.5-1.1,1.8c-0.6,0.3-1.1,0.1-1.1-0.6
			C263.8,294.6,264.2,293.7,264.8,293.4L264.8,293.4z"/>
		<path class="st52" d="M290.5,37.1L290.5,37.1l0-10.6c0-1,0.5-1.9,1.4-2.4c0.8-0.5,1.9-0.5,2.7,0L330,44.7c0.8,0.5,1.4,1.4,1.4,2.4
			v178.8l45,26c0.8,0.5,1.4,1.4,1.4,2.4c0,1-0.6,1.9-1.4,2.3l-47.6,26v66.5h0c0,0.4-0.3,0.8-0.8,1c-1.1,0.6-2.8,0.6-3.8,0
			c-0.5-0.3-0.8-0.7-0.8-1h0V281c0-1,0.5-1.9,1.4-2.4l44.8-24.5l-42.2-24.3c-0.8-0.5-1.4-1.4-1.4-2.4V48.6l-30-17.3v5.9h0
			c0,0.4-0.3,0.7-0.8,1c-1.1,0.6-2.8,0.6-3.8,0C290.8,37.8,290.5,37.5,290.5,37.1L290.5,37.1z"/>
	</g>
	<g>
		<defs>
			<path id="SVGID_47_" d="M290.5,37.1L290.5,37.1l0-10.6c0-1,0.5-1.9,1.4-2.4c0.8-0.5,1.9-0.5,2.7,0L330,44.7
				c0.8,0.5,1.4,1.4,1.4,2.4v178.8l45,26c0.8,0.5,1.4,1.4,1.4,2.4c0,1-0.6,1.9-1.4,2.3l-47.6,26v66.5h0c0,0.4-0.3,0.8-0.8,1
				c-1.1,0.6-2.8,0.6-3.8,0c-0.5-0.3-0.8-0.7-0.8-1h0V281c0-1,0.5-1.9,1.4-2.4l44.8-24.5l-42.2-24.3c-0.8-0.5-1.4-1.4-1.4-2.4V48.6
				l-30-17.3v5.9h0c0,0.4-0.3,0.7-0.8,1c-1.1,0.6-2.8,0.6-3.8,0C290.8,37.8,290.5,37.5,290.5,37.1L290.5,37.1z"/>
		</defs>
		<clipPath id="SVGID_48_">
			<use xlink:href="#SVGID_47_"  style="overflow:visible;"/>
		</clipPath>
		<path class="st53" d="M321.5,315.1c1.9,0.5,5.7-1.9,8.1,0.6c1.2,1.2,0.7,3.9,1.1,5.4c1.8,7.8,4.4,28.1-0.2,34.8
			c-0.6,0.9-1.9,1.2-2.7,1.8c-0.6,0.4-1.2,1.3-2,1.4c-9.3,1.1-8.1-20.9-8.1-26.5c0-0.5-0.3-3,0.4-3"/>
		<path class="st53" d="M328.8,301.8c-0.8-0.6-1.7-1-2.7-1c-1,0-1.9,0.4-2.7,1v-9.3c1.8-1.8,3.6-1.7,5.4,0V301.8L328.8,301.8z"/>
		<path class="st53" d="M331.1,281.5c0.2-1,0-2-0.5-2.9c-0.5-0.9-1.3-1.5-2.2-1.8l8.1-4.7c2.4,0.7,3.3,2.2,2.7,4.7L331.1,281.5
			L331.1,281.5z"/>
		<path class="st53" d="M351.5,270.4c0.2-1,0-2-0.5-2.9c-0.5-0.9-1.3-1.5-2.2-1.8l8.1-4.7c2.4,0.7,3.3,2.2,2.7,4.7L351.5,270.4
			L351.5,270.4z"/>
		<path class="st53" d="M370.4,248.3c-0.9,0.3-1.7,1-2.2,1.8c-0.5,0.9-0.6,1.8-0.5,2.8l-8.1-4.7c-0.7-2.4,0.3-4,2.7-4.7L370.4,248.3
			L370.4,248.3z"/>
		<path class="st53" d="M351.4,237.7c-0.9,0.3-1.7,1-2.2,1.8c-0.5,0.9-0.6,1.8-0.5,2.8l-8.1-4.7c-0.7-2.4,0.3-4,2.7-4.7L351.4,237.7
			L351.4,237.7z"/>
		<path class="st53" d="M331.3,219.4c-0.8-0.6-1.7-1-2.7-1c-1,0-1.9,0.4-2.7,1V210c1.8-1.8,3.6-1.7,5.4,0V219.4L331.3,219.4z"/>
		<path class="st53" d="M331.3,192.7c-0.8-0.6-1.7-1-2.7-1c-1,0-1.9,0.4-2.7,1v-9.3c1.8-1.8,3.6-1.7,5.4,0V192.7L331.3,192.7z"/>
		<path class="st53" d="M331.3,158.2c-0.8-0.6-1.7-1-2.7-1c-1,0-1.9,0.4-2.7,1v-9.3c1.8-1.8,3.6-1.7,5.4,0V158.2L331.3,158.2z"/>
		<path class="st53" d="M331.3,112.5c-0.8-0.6-1.7-1-2.7-1c-1,0-1.9,0.4-2.7,1v-9.3c1.8-1.8,3.6-1.7,5.4,0V112.5L331.3,112.5z"/>
		<path class="st53" d="M331.3,67.3c-0.8-0.6-1.7-1-2.7-1c-1,0-1.9,0.4-2.7,1V58c1.8-1.8,3.6-1.7,5.4,0V67.3L331.3,67.3z"/>
		<path class="st53" d="M325.4,42c-0.9,0.3-1.7,1-2.2,1.8c-0.5,0.9-0.6,1.8-0.5,2.8l-8.1-4.7c-0.7-2.4,0.3-4,2.7-4.7L325.4,42
			L325.4,42z"/>
		<path class="st53" d="M309.1,32.5c-0.9,0.3-1.7,1-2.2,1.8c-0.5,0.9-0.6,1.8-0.5,2.8l-8.1-4.7c-0.7-2.4,0.3-4,2.7-4.7L309.1,32.5
			L309.1,32.5z"/>
	</g>
	<g>
		<g>
			<path class="st54" d="M325.9,351.2c-0.8,0-1.6-0.2-2.2-0.5c-0.6-0.3-1-0.8-1.1-1.4c0-0.1-0.1-0.2-0.1-0.3V281
				c0-1.2,0.7-2.4,1.8-3l43.8-23.9L327,230.3c-1-0.6-1.7-1.7-1.7-2.9V49l-28.7-16.6v4.7c0,0.1,0,0.2-0.1,0.3
				c-0.1,0.5-0.5,0.9-1.1,1.3c-1.3,0.7-3.2,0.7-4.5,0c-0.6-0.3-0.9-0.8-1.1-1.3c0-0.1-0.1-0.2-0.1-0.3V26.5c0-1.2,0.6-2.3,1.7-2.9
				c1-0.6,2.3-0.6,3.4,0l35.5,20.5c1,0.6,1.7,1.7,1.7,2.9v178.4l44.6,25.8c1.1,0.6,1.7,1.7,1.7,3c0,1.2-0.7,2.3-1.8,2.9L329.3,283
				v66.1c0,0.1,0,0.2,0,0.3c-0.1,0.5-0.5,1-1.1,1.4C327.5,351.1,326.7,351.2,325.9,351.2z M323.9,348.9c0,0,0,0.1,0,0.1
				c0,0.2,0.2,0.4,0.5,0.5c0.9,0.5,2.3,0.5,3.2,0c0.3-0.2,0.4-0.4,0.5-0.5c0,0,0-0.1,0-0.1v-66.4c0-0.2,0.1-0.5,0.3-0.6l47.6-26
				c0.7-0.4,1.1-1,1.1-1.8c0-0.7-0.4-1.4-1-1.8l-45-26c-0.2-0.1-0.3-0.3-0.3-0.6V47c0-0.7-0.4-1.4-1-1.8l-35.5-20.5
				c-0.6-0.4-1.4-0.4-2.1,0c-0.6,0.4-1,1-1,1.8V37c0,0,0,0,0,0c0,0.2,0.2,0.3,0.5,0.5c0.9,0.5,2.3,0.5,3.2,0
				c0.3-0.2,0.4-0.3,0.5-0.5c0,0,0,0,0-0.1v-5.7c0-0.2,0.1-0.5,0.3-0.6c0.2-0.1,0.5-0.1,0.7,0l30,17.3c0.2,0.1,0.3,0.3,0.3,0.6
				v178.8c0,0.7,0.4,1.4,1,1.8l42.2,24.3c0.2,0.1,0.3,0.3,0.3,0.6c0,0.2-0.1,0.5-0.3,0.6l-44.8,24.5c-0.7,0.4-1.1,1.1-1.1,1.8V348.9
				z"/>
		</g>
		<path class="st31" d="M271.6,297l31.7-18.3c0.4-0.2,0.9-0.2,1.3,0l15.4,8.9c0.4,0.2,0.7,0.7,0.7,1.1v58.7c0,0.7-0.6,0.3-1.3,0.3
			c-0.7,0-1.3,0.4-1.3-0.3v-57.9l-14-8.1l-31.7,18.3c-0.4,0.2-0.9,0.2-1.3,0l-8.3-4.8c-0.6-0.4-0.8-1.2-0.5-1.8
			c0.4-0.6,1.2-0.8,1.8-0.5L271.6,297L271.6,297z"/>
	</g>
	<g>
		<defs>
			<path id="SVGID_49_" d="M271.6,297l31.7-18.3c0.4-0.2,0.9-0.2,1.3,0l15.4,8.9c0.4,0.2,0.7,0.7,0.7,1.1v58.7
				c0,0.7-0.6,0.3-1.3,0.3c-0.7,0-1.3,0.4-1.3-0.3v-57.9l-14-8.1l-31.7,18.3c-0.4,0.2-0.9,0.2-1.3,0l-8.3-4.8
				c-0.6-0.4-0.8-1.2-0.5-1.8c0.4-0.6,1.2-0.8,1.8-0.5L271.6,297L271.6,297z"/>
		</defs>
		<clipPath id="SVGID_50_">
			<use xlink:href="#SVGID_49_"  style="overflow:visible;"/>
		</clipPath>
		<path class="st55" d="M267.6,294.3c1.1,0,2,0.9,2,2s-0.9,2-2,2s-2-0.9-2-2S266.5,294.3,267.6,294.3L267.6,294.3z"/>
		<path class="st55" d="M275.1,294.3c1.1,0,2,0.9,2,2c0,1.1-0.9,2-2,2c-1.1,0-2-0.9-2-2C273.1,295.2,274,294.3,275.1,294.3
			L275.1,294.3z"/>
		<path class="st55" d="M280.1,291.5c1.1,0,2,0.9,2,2c0,1.1-0.9,2-2,2s-2-0.9-2-2C278.1,292.4,279,291.5,280.1,291.5L280.1,291.5z"
			/>
		<path class="st55" d="M286,288c1.1,0,2,0.9,2,2c0,1.1-0.9,2-2,2c-1.1,0-2-0.9-2-2C284,288.9,284.9,288,286,288L286,288z"/>
		<path class="st55" d="M291.3,284.9c1.1,0,2,0.9,2,2c0,1.1-0.9,2-2,2s-2-0.9-2-2C289.3,285.8,290.2,284.9,291.3,284.9L291.3,284.9z
			"/>
		<path class="st55" d="M297.3,281.5c1.1,0,2,0.9,2,2c0,1.1-0.9,2-2,2c-1.1,0-2-0.9-2-2C295.3,282.4,296.2,281.5,297.3,281.5
			L297.3,281.5z"/>
		<path class="st55" d="M308.2,279.7c1.1,0,2,0.9,2,2c0,1.1-0.9,2-2,2c-1.1,0-2-0.9-2-2C306.2,280.6,307.1,279.7,308.2,279.7
			L308.2,279.7z"/>
		<path class="st55" d="M313.4,283.2c1.1,0,2,0.9,2,2s-0.9,2-2,2c-1.1,0-2-0.9-2-2S312.3,283.2,313.4,283.2L313.4,283.2z"/>
		<path class="st55" d="M319.1,290c1.1,0,2,0.9,2,2c0,1.1-0.9,2-2,2c-1.1,0-2-0.9-2-2C317.1,290.9,318,290,319.1,290L319.1,290z"/>
		<path class="st55" d="M319.2,297.2c1.1,0,2,0.9,2,2c0,1.1-0.9,2-2,2c-1.1,0-2-0.9-2-2C317.2,298.1,318.1,297.2,319.2,297.2
			L319.2,297.2z"/>
		<path class="st55" d="M319.2,304.4c1.1,0,2,0.9,2,2s-0.9,2-2,2c-1.1,0-2-0.9-2-2S318.1,304.4,319.2,304.4L319.2,304.4z"/>
		<path class="st55" d="M319.2,311.5c1.1,0,2,0.9,2,2c0,1.1-0.9,2-2,2c-1.1,0-2-0.9-2-2C317.2,312.4,318.1,311.5,319.2,311.5
			L319.2,311.5z"/>
		<path class="st55" d="M319.2,318.7c1.1,0,2,0.9,2,2c0,1.1-0.9,2-2,2c-1.1,0-2-0.9-2-2C317.2,319.6,318.1,318.7,319.2,318.7
			L319.2,318.7z"/>
		<path class="st55" d="M319.2,325.8c1.1,0,2,0.9,2,2c0,1.1-0.9,2-2,2c-1.1,0-2-0.9-2-2C317.2,326.7,318.1,325.8,319.2,325.8
			L319.2,325.8z"/>
		<path class="st55" d="M319.2,333c1.1,0,2,0.9,2,2s-0.9,2-2,2c-1.1,0-2-0.9-2-2S318.1,333,319.2,333L319.2,333z"/>
		<path class="st55" d="M319.2,340.1c1.1,0,2,0.9,2,2c0,1.1-0.9,2-2,2c-1.1,0-2-0.9-2-2C317.2,341,318.1,340.1,319.2,340.1
			L319.2,340.1z"/>
	</g>
	<g>
		<path class="st34" d="M262.6,291.2c1-0.6,1.9-0.1,1.9,1.1c0,1.2-0.8,2.6-1.9,3.2c-1,0.6-1.9,0.1-1.9-1.1
			C260.7,293.2,261.5,291.8,262.6,291.2L262.6,291.2z"/>
		<polygon class="st34" points="264,291.2 265.5,293.5 264.2,295.8 261.7,295.7 264,291.2 		"/>
		<path class="st20" d="M192,284.8v-52.5c0-0.7,0.6-1.3,1.3-1.3c0.7,0,1.3,0.6,1.3,1.3v53.3c0,0.5-0.3,0.9-0.7,1.1l-67.2,38.8
			c-0.4,0.2-0.9,0.2-1.3,0c-0.4-0.2-0.7-0.7-0.7-1.1v-30.3c0-0.7,0.6-1.3,1.3-1.3c0.7,0,1.3,0.6,1.3,1.3v28L192,284.8L192,284.8z"/>
		<path class="st20" d="M97.2,230.1v-52.5c0-0.7,0.6-1.3,1.3-1.3c0.7,0,1.3,0.6,1.3,1.3v53.3c0,0.5-0.3,0.9-0.7,1.1L32,270.8
			c-0.4,0.2-0.9,0.2-1.3,0c-0.4-0.2-0.7-0.7-0.7-1.1v-30.3c0-0.7,0.6-1.3,1.3-1.3c0.7,0,1.3,0.6,1.3,1.3v28L97.2,230.1L97.2,230.1z"
			/>
		<polygon class="st34" points="22,246.4 94.1,172.1 197.9,232 199.2,230.9 199.2,232.8 125.6,308.7 20.4,248 20.4,246 22,246.4 		
			"/>
		<polygon class="st56" points="125.6,306.7 199.2,230.9 94.1,170.2 20.4,246 125.6,306.7 		"/>
		<polygon class="st57" points="124.7,302.9 194.2,231.3 94.9,174 25.4,245.6 124.7,302.9 		"/>
	</g>
	<g>
		<defs>
			<polygon id="SVGID_51_" points="124.7,302.9 194.2,231.3 94.9,174 25.4,245.6 124.7,302.9 			"/>
		</defs>
		<clipPath id="SVGID_52_">
			<use xlink:href="#SVGID_51_"  style="overflow:visible;"/>
		</clipPath>
		<polygon class="st58" points="94.9,133.8 62.8,133.8 62.8,286.9 94.9,286.9 94.9,133.8 		"/>
		<polygon class="st58" points="56.2,133.8 33.8,133.8 33.8,286.9 56.2,286.9 56.2,133.8 		"/>
		<polygon class="st59" points="183.4,140.1 171.1,140.1 171.1,293.1 183.4,293.1 183.4,140.1 		"/>
		<polygon class="st59" points="167.5,146.1 160.4,146.1 160.4,299.2 167.5,299.2 167.5,146.1 		"/>
	</g>
	<g>
		<path class="st56" d="M91,198.3l16.4-16.9c0.1-0.1,0.2-0.1,0.3,0c0.1,0.1,0.1,0.2,0,0.3l-16.3,16.8l13.1,7.6l16.5-17
			c0.1-0.1,0.2-0.1,0.3,0c0.1,0.1,0.1,0.2,0,0.3l-16.4,16.9l14.2,8.2l16.7-17.3c0.1-0.1,0.2-0.1,0.3,0c0.1,0.1,0.1,0.2,0,0.3
			l-16.6,17.2l14.1,8.1L151,205c0.1-0.1,0.2-0.1,0.3,0c0.1,0.1,0.1,0.2,0,0.3l-17.3,17.8l14,8.1l16.9-17.4c0.1-0.1,0.2-0.1,0.3,0
			c0.1,0.1,0.1,0.2,0,0.3l-16.8,17.4l14.2,8.2l18.1-18.8c0.1-0.1,0.2-0.1,0.3,0c0.1,0.1,0.1,0.2,0,0.3l-18.1,18.7l15.7,9.1
			c0.4,0.3,0.6,0.8,0.3,1.3c-0.3,0.4-0.8,0.6-1.3,0.3l-16.1-9.3l-16,16.5l15.5,8.9c0.4,0.3,0.6,0.8,0.3,1.3
			c-0.3,0.4-0.8,0.6-1.3,0.3l-15.9-9.2l-17.7,18.3l16.1,9.3c0.4,0.3,0.6,0.8,0.3,1.3c-0.3,0.4-0.8,0.6-1.3,0.3l-16.5-9.5l-15,15.5
			c-0.1,0.1-0.2,0.1-0.3,0c-0.1-0.1-0.1-0.2,0-0.3l14.9-15.4l-14.2-8.2l-16.3,16.8c-0.1,0.1-0.2,0.1-0.3,0c-0.1-0.1-0.1-0.2,0-0.3
			l16.2-16.7l-14-8.1l-15.8,16.4c-0.1,0.1-0.2,0.1-0.3,0c-0.1-0.1-0.1-0.2,0-0.3L96,261.8l-14.1-8.1l-16.5,17
			c-0.1,0.1-0.2,0.1-0.3,0c-0.1-0.1-0.1-0.2,0-0.3l16.4-16.9l-14.2-8.2l-16.7,17.3c-0.1,0.1-0.2,0.1-0.3,0c-0.1-0.1-0.1-0.2,0-0.3
			L66.8,245l-13.1-7.6l-16.8,17.4c-0.1,0.1-0.2,0.1-0.3,0c-0.1-0.1-0.1-0.2,0-0.3l16.7-17.3l-14-8.1c-0.4-0.3-0.6-0.8-0.3-1.3
			c0.3-0.4,0.8-0.6,1.3-0.3l14.4,8.3l17.7-18.3l-14.6-8.4c-0.4-0.3-0.6-0.8-0.3-1.3c0.3-0.4,0.8-0.6,1.3-0.3l15,8.7l16-16.5
			l-14.4-8.3c-0.4-0.3-0.6-0.8-0.3-1.3c0.3-0.4,0.8-0.6,1.3-0.3L91,198.3L91,198.3z M112.1,269l14.2,8.2l17.7-18.3l-14.2-8.2
			L112.1,269L112.1,269z M97.7,260.7l14,8.1l17.7-18.3l-14-8.1L97.7,260.7L97.7,260.7z M83.2,252.3l14.1,8.1l17.7-18.3l-14.1-8.1
			L83.2,252.3L83.2,252.3z M131.2,249.3l14.2,8.2l16-16.5l-14.2-8.2L131.2,249.3L131.2,249.3z M68.6,243.8l14.2,8.2l17.7-18.3
			l-14.2-8.2L68.6,243.8L68.6,243.8z M116.8,241l14,8.1l16-16.5l-14-8.1L116.8,241L116.8,241z M55,236l13.1,7.6l17.7-18.3l-13.1-7.6
			L55,236L55,236z M102.3,232.6l14.1,8.1l16-16.5l-14.1-8.1L102.3,232.6L102.3,232.6z M87.6,224.2l14.2,8.2l16-16.5l-14.2-8.2
			L87.6,224.2L87.6,224.2z M74.1,216.4l13.1,7.6l16-16.5L90,199.9L74.1,216.4L74.1,216.4z"/>
		<path class="st31" d="M264.8,293.5c0.5-0.3,0.9-0.1,0.9,0.5c0,0.6-0.4,1.3-0.9,1.6c-0.5,0.3-0.9,0.1-0.9-0.5
			C263.9,294.6,264.3,293.8,264.8,293.5L264.8,293.5z"/>
		<path class="st31" d="M318.4,347c0.5-0.3,1.4-0.3,1.9,0c0.5,0.3,0.5,0.8,0,1.1c-0.5,0.3-1.4,0.3-1.9,0
			C317.8,347.8,317.8,347.3,318.4,347L318.4,347z"/>
		<polygon class="st60" points="196.7,392.6 0.5,279.4 0.5,383.8 108.4,446.1 196.7,450.9 196.7,392.6 		"/>
	</g>
	<g>
		<defs>
			<polygon id="SVGID_53_" points="196.7,392.6 0.5,279.4 0.5,383.8 108.4,446.1 196.7,450.9 196.7,392.6 			"/>
		</defs>
		<clipPath id="SVGID_54_">
			<use xlink:href="#SVGID_53_"  style="overflow:visible;"/>
		</clipPath>
		<path class="st61" d="M-7.6,304.6c1.5,2.5,0.6,22.3,2.7,24.3c4.7,4.2,12.3-10.3,16.3-5.4c5.7,7,10.5,18.1,18.3,22.9
			c6.3,3.8,16.2,1.6,23.2,2.9c14.5,2.8,29.1,7.4,43.1,12.2c13.4,4.6,21.1,14.1,32.5,21.6c12.1,8,24.1,15.9,35.7,24.4
			c5.8,4.3,9.9,10.5,15.2,15.2c4,3.6,9.2,5.9,13.1,9.5c6.4,6,12.4,18.4,20.4,22.3c0.6,0.3,2.2-2.5,2.4-2.9c7.1-12.6,6-30.7,7-44.4
			c0.7-9.7,3.5-32.5,0.7-41.4c-3.8-12.1-112.6-67.1-128.9-76.8c-25.8-15.4-51.2-22-80-29c-3.2-0.8-32.8-9.6-24.5-9.2"/>
	</g>
	<g>
		<path class="st62" d="M511,178.7l-112,64.7c-0.8,0.5-1.8,0.5-2.6,0l-46.8-27c-0.8-0.5-1.3-1.3-1.3-2.2v-95l-11.2-6.4
			c-0.2-0.1-0.3-0.2-0.4-0.3c-0.2-0.2-0.4-0.6-0.4-1c0-1.1,0.8-2.5,1.8-3.1c0.4-0.2,0.8-0.3,1.1-0.2c0.1,0,0.3,0.1,0.4,0.2l12.4,7.2
			c0.8,0.5,1.3,1.3,1.3,2.2v95l44.2,25.5L510.6,173c0.4,0.3,0.7,0.7,0.8,1.3c0.2,1.1-0.6,2-0.7,3C510.7,177.8,510.8,178.2,511,178.7
			L511,178.7z"/>
	</g>
	<g>
		<defs>
			<path id="SVGID_55_" d="M511,178.7l-112,64.7c-0.8,0.5-1.8,0.5-2.6,0l-46.8-27c-0.8-0.5-1.3-1.3-1.3-2.2v-95l-11.2-6.4
				c-0.2-0.1-0.3-0.2-0.4-0.3c-0.2-0.2-0.4-0.6-0.4-1c0-1.1,0.8-2.5,1.8-3.1c0.4-0.2,0.8-0.3,1.1-0.2c0.1,0,0.3,0.1,0.4,0.2
				l12.4,7.2c0.8,0.5,1.3,1.3,1.3,2.2v95l44.2,25.5L510.6,173c0.4,0.3,0.7,0.7,0.8,1.3c0.2,1.1-0.6,2-0.7,3
				C510.7,177.8,510.8,178.2,511,178.7L511,178.7z"/>
		</defs>
		<clipPath id="SVGID_56_">
			<use xlink:href="#SVGID_55_"  style="overflow:visible;"/>
		</clipPath>
		<path class="st63" d="M353.5,131.1c-1.8,2.9-3.6,2.8-5.4,0v-6.4c1.8,2.8,3.6,2.9,5.4,0V131.1L353.5,131.1z"/>
		<path class="st63" d="M353.5,149.8c-1.8,2.9-3.6,2.8-5.4,0v-6.4c1.8,2.8,3.6,2.9,5.4,0V149.8L353.5,149.8z"/>
		<path class="st63" d="M353.5,168.4c-1.8,2.9-3.6,2.8-5.4,0V162c1.8,2.8,3.6,2.9,5.4,0V168.4L353.5,168.4z"/>
		<path class="st63" d="M353.5,187.1c-1.8,2.9-3.6,2.8-5.4,0v-6.4c1.8,2.8,3.6,2.9,5.4,0V187.1L353.5,187.1z"/>
		<path class="st63" d="M353.5,205.8c-1.8,2.9-3.6,2.8-5.4,0v-6.4c1.8,2.8,3.6,2.9,5.4,0V205.8L353.5,205.8z"/>
		<path class="st63" d="M360.1,216.6c1.6,3,0.6,4.5-2.7,4.7l-5.6-3.2c3.3-0.1,4.3-1.7,2.7-4.7L360.1,216.6L360.1,216.6z"/>
		<path class="st63" d="M373.5,224.3c1.6,3,0.6,4.5-2.7,4.7l-5.6-3.2c3.3-0.1,4.3-1.7,2.7-4.7L373.5,224.3L373.5,224.3z"/>
		<path class="st63" d="M386.9,232.1c1.6,3,0.6,4.5-2.7,4.7l-5.6-3.2c3.3-0.1,4.3-1.7,2.7-4.7L386.9,232.1L386.9,232.1z"/>
		<path class="st63" d="M405.7,233.4c3.4,0.1,4.2,1.7,2.7,4.7l-5.6,3.2c1.5-3,0.7-4.5-2.7-4.7L405.7,233.4L405.7,233.4z"/>
		<path class="st63" d="M421.6,224.3c3.4,0.1,4.2,1.7,2.7,4.7l-5.6,3.2c1.5-3,0.7-4.5-2.7-4.7L421.6,224.3L421.6,224.3z"/>
		<path class="st63" d="M437.5,215.1c3.4,0.1,4.2,1.7,2.7,4.7l-5.6,3.2c1.5-3,0.7-4.5-2.7-4.7L437.5,215.1L437.5,215.1z"/>
		<path class="st63" d="M453.4,205.9c3.4,0.1,4.2,1.7,2.7,4.7l-5.6,3.2c1.5-3,0.7-4.5-2.7-4.7L453.4,205.9L453.4,205.9z"/>
		<path class="st63" d="M469.3,196.7c3.4,0.1,4.2,1.7,2.7,4.7l-5.6,3.2c1.5-3,0.7-4.5-2.7-4.7L469.3,196.7L469.3,196.7z"/>
		<path class="st63" d="M485.2,187.5c3.4,0.1,4.2,1.7,2.7,4.7l-5.6,3.2c1.5-3,0.7-4.5-2.7-4.7L485.2,187.5L485.2,187.5z"/>
		<path class="st63" d="M501.1,178.3c3.4,0.1,4.2,1.7,2.7,4.7l-5.6,3.2c1.5-3,0.7-4.5-2.7-4.7L501.1,178.3L501.1,178.3z"/>
	</g>
	<g>
		<g>
			<path class="st54" d="M397.6,244.3c-0.5,0-1.1-0.1-1.6-0.4l-46.8-27c-1-0.6-1.6-1.6-1.6-2.7v-94.7l-10.9-6.3
				c-0.2-0.1-0.4-0.3-0.5-0.4c-0.3-0.3-0.5-0.8-0.5-1.4c0-1.3,0.9-2.9,2-3.5c0.7-0.4,1.2-0.4,1.5-0.3c0.2,0,0.4,0.1,0.6,0.2
				l12.4,7.2c1,0.6,1.6,1.6,1.6,2.7v94.7l43.7,25.2l112.7-65.1c0.2-0.1,0.4-0.1,0.6,0c0.6,0.4,1,0.9,1.1,1.6
				c0.1,0.8-0.1,1.5-0.3,2.1c-0.1,0.4-0.3,0.7-0.3,1.1c0,0.5,0.1,0.8,0.2,1.2c0.1,0.2,0,0.5-0.2,0.6l-112,64.7
				C398.7,244.1,398.2,244.3,397.6,244.3z M339,108.6c-0.1,0-0.3,0.1-0.5,0.2c-0.8,0.5-1.5,1.7-1.5,2.6c0,0.3,0.1,0.5,0.2,0.6
				c0,0,0,0,0,0c0,0,0.1,0.1,0.2,0.2l11.2,6.4c0.2,0.1,0.3,0.3,0.3,0.5v95c0,0.7,0.4,1.4,1,1.7l46.8,27c0.6,0.4,1.4,0.4,2,0
				l111.7-64.5c-0.1-0.4-0.1-0.8-0.1-1.2c0-0.5,0.2-0.9,0.4-1.4c0.2-0.5,0.4-1,0.3-1.5c0-0.3-0.2-0.5-0.3-0.7l-112.6,65
				c-0.2,0.1-0.4,0.1-0.5,0l-44.2-25.5c-0.2-0.1-0.3-0.3-0.3-0.5v-95c0-0.7-0.4-1.4-1-1.7l-12.4-7.2c-0.1-0.1-0.2-0.1-0.3-0.1
				c0,0,0,0-0.1,0C339.1,108.6,339,108.6,339,108.6z"/>
		</g>
		<polygon class="st24" points="235.3,77.8 235.3,77.8 235.3,77.8 235.3,77.8 		"/>
		<path class="st52" d="M250.6,74.4l10-19.5l15.3-9.2l27,17.8l7.5,20.5v34.8l-0.2,2.5c-19,3.3-40.4,0.6-55.4-8.1
			c-1.5-0.9-2.9-1.8-4.2-2.7V74.4L250.6,74.4z"/>
	</g>
	<g>
		<defs>
			<path id="SVGID_57_" d="M250.6,74.4l10-19.5l15.3-9.2l27,17.8l7.5,20.5v34.8l-0.2,2.5c-19,3.3-40.4,0.6-55.4-8.1
				c-1.5-0.9-2.9-1.8-4.2-2.7V74.4L250.6,74.4z"/>
		</defs>
		<clipPath id="SVGID_58_">
			<use xlink:href="#SVGID_57_"  style="overflow:visible;"/>
		</clipPath>
		<path class="st64" d="M252.6,71.4c21.9-12.7,57.6-12.7,79.5,0c21.9,12.7,21.9,33.2,0,45.9c-21.9,12.7-57.6,12.7-79.5,0
			C230.7,104.6,230.7,84.1,252.6,71.4L252.6,71.4z"/>
		<path class="st65" d="M252.6,71.4c21.9-12.7,57.6-12.7,79.5,0c21.9,12.7,21.9,33.2,0,45.9c-21.9,12.7-57.6,12.7-79.5,0
			C230.7,104.6,230.7,84.1,252.6,71.4L252.6,71.4z"/>
		<path class="st66" d="M252.6,41.3c21.9-12.7,57.6-12.7,79.5,0c21.9,12.7,21.9,33.2,0,45.9c-21.9,12.7-57.6,12.7-79.5,0
			C230.7,74.5,230.7,54,252.6,41.3L252.6,41.3z"/>
	</g>
	<g>
		<defs>
			<path id="SVGID_59_" d="M252.6,41.3c21.9-12.7,57.6-12.7,79.5,0c21.9,12.7,21.9,33.2,0,45.9c-21.9,12.7-57.6,12.7-79.5,0
				C230.7,74.5,230.7,54,252.6,41.3L252.6,41.3z"/>
		</defs>
		<defs>
			<path id="SVGID_60_" d="M250.6,74.4l10-19.5l15.3-9.2l27,17.8l7.5,20.5v34.8l-0.2,2.5c-19,3.3-40.4,0.6-55.4-8.1
				c-1.5-0.9-2.9-1.8-4.2-2.7V74.4L250.6,74.4z"/>
		</defs>
		<clipPath id="SVGID_61_">
			<use xlink:href="#SVGID_59_"  style="overflow:visible;"/>
		</clipPath>
		<clipPath id="SVGID_62_" class="st67">
			<use xlink:href="#SVGID_60_"  style="overflow:visible;"/>
		</clipPath>
		<path class="st68" d="M252.6,68.6c21.9-12.7,57.6-12.7,79.5,0c21.9,12.7,21.9,33.2,0,45.9c-21.9,12.7-57.6,12.7-79.5,0
			C230.7,101.8,230.7,81.3,252.6,68.6L252.6,68.6z"/>
	</g>
	<g>
		<defs>
			<path id="SVGID_63_" d="M250.6,74.4l10-19.5l15.3-9.2l27,17.8l7.5,20.5v34.8l-0.2,2.5c-19,3.3-40.4,0.6-55.4-8.1
				c-1.5-0.9-2.9-1.8-4.2-2.7V74.4L250.6,74.4z"/>
		</defs>
		<clipPath id="SVGID_64_">
			<use xlink:href="#SVGID_63_"  style="overflow:visible;"/>
		</clipPath>
		<path class="st69" d="M286.3,59.1c-1.9,1.1-2.8,2.5-2.8,4c0,1.4,0.9,2.9,2.8,4c3.4,2,9,2,12.4,0c1.9-1.1,2.8-2.5,2.8-4
			c0-1.4-0.9-2.9-2.8-4C295.3,57.1,289.7,57.1,286.3,59.1L286.3,59.1z M287,60.2c3.1-1.8,8-1.8,11.1,0c1.4,0.8,2.1,1.8,2.1,2.8
			c0,1-0.7,2-2.1,2.8c-3.1,1.8-8,1.8-11.1,0c-1.4-0.8-2.1-1.8-2.1-2.8C284.9,62,285.6,61,287,60.2L287,60.2z"/>
		<path class="st69" d="M281.7,56.4c-3.1,1.8-4.7,4.2-4.7,6.6c0,2.4,1.5,4.8,4.7,6.6c6,3.4,15.6,3.4,21.6,0c3.1-1.8,4.7-4.2,4.7-6.6
			c0-2.4-1.5-4.8-4.7-6.6C297.4,53,287.7,53,281.7,56.4L281.7,56.4z M282.4,57.5c5.6-3.2,14.7-3.2,20.3,0c2.6,1.5,4,3.5,4,5.5
			c0,2-1.4,4-4,5.5c-5.6,3.2-14.7,3.2-20.3,0c-2.6-1.5-4-3.5-4-5.5C278.4,61,279.8,59.1,282.4,57.5L282.4,57.5z"/>
		<path class="st69" d="M273.5,51.7c-5.4,3.1-8,7.2-8,11.3s2.6,8.2,8,11.3c10.5,6,27.5,6,38,0c5.4-3.1,8-7.2,8-11.3s-2.6-8.2-8-11.3
			C301,45.6,284,45.6,273.5,51.7L273.5,51.7z M274.2,52.8c10.1-5.8,26.5-5.8,36.6,0c4.9,2.8,7.4,6.5,7.4,10.2
			c0,3.7-2.5,7.4-7.4,10.2c-10.1,5.8-26.5,5.8-36.6,0c-4.9-2.8-7.4-6.5-7.4-10.2C266.8,59.3,269.3,55.7,274.2,52.8L274.2,52.8z"/>
		<path class="st69" d="M259,43.3c-9.4,5.4-14.1,12.6-14.1,19.7s4.7,14.3,14.1,19.7c18.5,10.7,48.6,10.7,67.1,0
			c9.4-5.4,14.1-12.6,14.1-19.7s-4.7-14.3-14.1-19.7C307.6,32.6,277.5,32.6,259,43.3L259,43.3z M259.6,44.4
			c18.2-10.5,47.6-10.5,65.8,0c8.9,5.1,13.4,11.9,13.4,18.6c0,6.8-4.5,13.5-13.4,18.6c-18.2,10.5-47.6,10.5-65.8,0
			c-8.9-5.1-13.4-11.9-13.4-18.6C246.2,56.3,250.7,49.6,259.6,44.4L259.6,44.4z"/>
		<polyline class="st70" points="289.4,38.8 289.1,63.5 296.7,63.5 296.7,38 		"/>
	</g>
	<g>
		<defs>
			<polyline id="SVGID_65_" points="289.4,38.8 289.1,63.5 296.7,63.5 296.7,38 			"/>
		</defs>
		<defs>
			<path id="SVGID_66_" d="M250.6,74.4l10-19.5l15.3-9.2l27,17.8l7.5,20.5v34.8l-0.2,2.5c-19,3.3-40.4,0.6-55.4-8.1
				c-1.5-0.9-2.9-1.8-4.2-2.7V74.4L250.6,74.4z"/>
		</defs>
		<clipPath id="SVGID_67_">
			<use xlink:href="#SVGID_65_"  style="overflow:visible;"/>
		</clipPath>
		<clipPath id="SVGID_68_" class="st71">
			<use xlink:href="#SVGID_66_"  style="overflow:visible;"/>
		</clipPath>
		<path class="st72" d="M288.7,56.5c0.5,0.7,0.1,1.9,1,2.4c1.2,0.7,2-0.7,2.4-0.6c1,0.3,0.7,2,2,2c0.5,0,0.8-0.7,1.5-0.7
			c0,0,0,0,0.1,0c0.1,0,0.1,0,0.2,0c0,0,0.1,0.1,0.1,0.1c0.2,0.4,0.4,1.1,1.2,1.1c0.1,0,0.2,0,0.3-0.1c0.2-0.4,0.7-1.9,0-2.1
			c-0.5-0.2-1.8,0.4-2.6,0.1c-0.7-0.3-0.7-1-1.4-1.2c-0.7-0.3-1.4,0.3-2.1,0.2c-1.2-0.3-0.7-0.8-1.3-1.2c-0.4-0.3-1.2,0.3-1.6,0.2
			c-0.4-0.2-0.5-0.6-0.8-0.8c-0.2-0.1-0.4-0.1-0.7-0.1c-0.1,0-0.2,0.1-0.2,0"/>
		<path class="st72" d="M286.2,53.2c0.5,0.7,0.1,1.9,1,2.4c1.2,0.7,2-0.7,2.4-0.6c1,0.3,0.7,2,2,2c0.5,0,0.8-0.7,1.5-0.7
			c0,0,0,0,0.1,0c0.1,0,0.1,0,0.2,0c0,0,0.1,0.1,0.1,0.1c0.2,0.4,0.4,1.1,1.2,1.1c0.1,0,0.2,0,0.3-0.1c0.2-0.4,0.7-1.9,0-2.1
			c-0.5-0.2-1.8,0.4-2.6,0.1c-0.7-0.3-0.7-1-1.4-1.2c-0.7-0.3-1.4,0.3-2.1,0.2c-1.2-0.3-0.7-0.8-1.3-1.2c-0.4-0.3-1.2,0.3-1.6,0.2
			c-0.4-0.2-0.5-0.6-0.8-0.8c-0.2-0.1-0.4-0.1-0.7-0.1c-0.1,0-0.2,0.1-0.2,0"/>
	</g>
	<g>
		<defs>
			<path id="SVGID_69_" d="M250.6,74.4l10-19.5l15.3-9.2l27,17.8l7.5,20.5v34.8l-0.2,2.5c-19,3.3-40.4,0.6-55.4-8.1
				c-1.5-0.9-2.9-1.8-4.2-2.7V74.4L250.6,74.4z"/>
		</defs>
		<clipPath id="SVGID_70_">
			<use xlink:href="#SVGID_69_"  style="overflow:visible;"/>
		</clipPath>
		<polygon class="st73" points="252.1,73.4 249.7,74.8 249.7,113.1 252.1,111.7 252.1,73.4 		"/>
		<polygon class="st74" points="250.1,74.4 252,74.6 261,57.1 260.6,54.3 249.8,73.2 250.1,74.4 		"/>
		<polygon class="st74" points="260.9,57.3 276.1,47.3 275.9,45.1 260.5,54.3 260.9,57.3 		"/>
		<polygon class="st74" points="276.1,47.3 303.4,65.1 303.2,62.9 275.7,44.9 276.1,47.3 		"/>
		<path class="st75" d="M250.6,110.6l1.5-0.6c16.8,9.7,36.5,12.6,58.6,9.8v2.4l-21.8,3.3l-26.5-6.4L250.6,110.6L250.6,110.6z"/>
		<polygon class="st76" points="302.8,64.6 309.3,83.7 309.2,119.8 310.6,121.8 313.6,118.5 313.6,78.8 302.8,62 302.8,64.6 		"/>
	</g>
	<g>
		<path class="st77" d="M290,61.9c-0.4-0.1-1.7,0.5-1.6,1c0.1,0.3,0.7,0.3,0.8,0.5c0.1,0.3-0.7,0.8-0.4,1.1c0.7,0.6,1.3-0.8,2-0.5
			c0.4,0.2,0.2,0.9,1.7,1c0.6,0,1-0.7,1.5-0.6c1.1,0.2,1.5,1.2,2.9,0.5c0.8-0.4,0.6-0.8-0.1-1.2c0,0-0.1,0-0.1-0.1
			c0.1-0.3,1.3-0.3,1.1-0.7c-0.3-0.5-1.4-0.3-1.8-0.5c-0.2-0.1,0.7-0.3,0.6-0.5c-0.3-0.5-1.9-0.2-1.2-0.4"/>
		<path class="st78" d="M293.2,80.5c0.3,0,0.5,0.2,0.5,0.5s-0.2,0.5-0.5,0.5c-0.3,0-0.5-0.2-0.5-0.5S292.9,80.5,293.2,80.5
			L293.2,80.5z M289.5,78.4c0.3,0,0.6,0.3,0.6,0.6c0,0.3-0.3,0.6-0.6,0.6c-0.3,0-0.6-0.3-0.6-0.6C288.8,78.7,289.1,78.4,289.5,78.4
			L289.5,78.4z M294.8,77.2c0.3,0,0.6,0.3,0.6,0.6c0,0.3-0.3,0.6-0.6,0.6c-0.3,0-0.6-0.3-0.6-0.6C294.1,77.5,294.4,77.2,294.8,77.2
			L294.8,77.2z M289.7,74.6c0.7,0,1.3,0.6,1.3,1.3c0,0.7-0.6,1.3-1.3,1.3c-0.7,0-1.3-0.6-1.3-1.3C288.3,75.2,288.9,74.6,289.7,74.6
			L289.7,74.6z M293.1,75.6c0.3,0,0.6,0.3,0.6,0.6c0,0.3-0.3,0.6-0.6,0.6c-0.3,0-0.6-0.3-0.6-0.6C292.5,75.8,292.8,75.6,293.1,75.6
			L293.1,75.6z M285.1,75.2c0.3,0,0.6,0.3,0.6,0.6c0,0.3-0.3,0.6-0.6,0.6s-0.6-0.3-0.6-0.6C284.5,75.5,284.8,75.2,285.1,75.2
			L285.1,75.2z M296.1,74.2c0.3,0,0.5,0.2,0.5,0.5s-0.2,0.5-0.5,0.5c-0.3,0-0.5-0.2-0.5-0.5S295.8,74.2,296.1,74.2L296.1,74.2z
			 M292.2,72.4c0.3,0,0.6,0.3,0.6,0.6c0,0.3-0.3,0.6-0.6,0.6c-0.3,0-0.6-0.3-0.6-0.6C291.6,72.6,291.9,72.4,292.2,72.4L292.2,72.4z
			 M284.7,70.9c0.7,0,1.3,0.6,1.3,1.3c0,0.7-0.6,1.3-1.3,1.3c-0.7,0-1.3-0.6-1.3-1.3C283.3,71.5,283.9,70.9,284.7,70.9L284.7,70.9z
			 M300.4,71.6c0.3,0,0.6,0.3,0.6,0.6c0,0.3-0.3,0.6-0.6,0.6c-0.3,0-0.6-0.3-0.6-0.6C299.8,71.8,300.1,71.6,300.4,71.6L300.4,71.6z
			 M288,71.4c0.3,0,0.6,0.3,0.6,0.6c0,0.3-0.3,0.6-0.6,0.6c-0.3,0-0.6-0.3-0.6-0.6C287.4,71.7,287.6,71.4,288,71.4L288,71.4z
			 M296.2,70.9c0.3,0,0.6,0.3,0.6,0.6c0,0.3-0.3,0.6-0.6,0.6c-0.3,0-0.6-0.3-0.6-0.6C295.6,71.2,295.9,70.9,296.2,70.9L296.2,70.9z
			 M280.4,70.9c0.3,0,0.5,0.2,0.5,0.5c0,0.3-0.2,0.5-0.5,0.5s-0.5-0.2-0.5-0.5C279.9,71.1,280.1,70.9,280.4,70.9L280.4,70.9z
			 M299.8,67.7c0.7,0,1.3,0.6,1.3,1.3c0,0.7-0.6,1.3-1.3,1.3c-0.7,0-1.3-0.6-1.3-1.3C298.5,68.3,299.1,67.7,299.8,67.7L299.8,67.7z
			 M291.9,67.4c0.7,0,1.3,0.6,1.3,1.3c0,0.7-0.6,1.3-1.3,1.3c-0.7,0-1.3-0.6-1.3-1.3C290.6,68,291.1,67.4,291.9,67.4L291.9,67.4z
			 M283.6,68.3c0.3,0,0.6,0.3,0.6,0.6c0,0.3-0.3,0.6-0.6,0.6c-0.3,0-0.6-0.3-0.6-0.6C283,68.6,283.3,68.3,283.6,68.3L283.6,68.3z
			 M295.7,66c0.3,0,0.6,0.3,0.6,0.6c0,0.3-0.3,0.6-0.6,0.6c-0.3,0-0.6-0.3-0.6-0.6C295,66.3,295.3,66,295.7,66L295.7,66z
			 M277.6,66.1c0.3,0,0.5,0.2,0.5,0.5c0,0.3-0.2,0.5-0.5,0.5c-0.3,0-0.5-0.2-0.5-0.5C277.1,66.3,277.3,66.1,277.6,66.1L277.6,66.1z
			 M284.7,64.8c0.3,0,0.5,0.2,0.5,0.5c0,0.3-0.2,0.5-0.5,0.5s-0.5-0.2-0.5-0.5C284.2,65,284.4,64.8,284.7,64.8L284.7,64.8z"/>
		<path class="st79" d="M338,377.8c0,0.3-0.2,0.5-0.5,0.5c-0.3,0-0.5-0.2-0.5-0.5c0-0.3,0.2-0.5,0.5-0.5
			C337.7,377.3,338,377.5,338,377.8L338,377.8z M339.8,373.9c0,0.3-0.2,0.6-0.6,0.7c-0.3,0-0.6-0.2-0.7-0.6c0-0.3,0.2-0.6,0.6-0.7
			C339.5,373.3,339.8,373.6,339.8,373.9L339.8,373.9z M341.4,379.2c0,0.3-0.2,0.6-0.6,0.7c-0.3,0-0.6-0.2-0.7-0.6
			c0-0.3,0.2-0.6,0.6-0.7C341.1,378.6,341.4,378.8,341.4,379.2L341.4,379.2z M343.6,373.9c0,0.7-0.5,1.4-1.2,1.4
			c-0.7,0-1.4-0.5-1.4-1.2c0-0.7,0.5-1.4,1.2-1.4C342.9,372.6,343.6,373.2,343.6,373.9L343.6,373.9z M342.9,377.4
			c0,0.3-0.2,0.6-0.6,0.7c-0.3,0-0.6-0.2-0.7-0.6c0-0.3,0.2-0.6,0.6-0.7C342.6,376.8,342.9,377.1,342.9,377.4L342.9,377.4z
			 M342.8,369.5c0,0.3-0.2,0.6-0.6,0.7c-0.3,0-0.6-0.2-0.7-0.6c0-0.3,0.2-0.6,0.6-0.7C342.5,368.8,342.8,369.1,342.8,369.5
			L342.8,369.5z M344.4,380.3c0,0.3-0.2,0.5-0.5,0.5c-0.3,0-0.5-0.2-0.5-0.5c0-0.3,0.2-0.5,0.5-0.5
			C344.2,379.8,344.4,380.1,344.4,380.3L344.4,380.3z M346,376.4c0,0.3-0.2,0.6-0.6,0.7c-0.3,0-0.6-0.2-0.7-0.6
			c0-0.3,0.2-0.6,0.6-0.7C345.7,375.8,346,376,346,376.4L346,376.4z M347.1,368.7c0,0.7-0.5,1.4-1.2,1.4c-0.7,0-1.4-0.5-1.4-1.2
			c0-0.7,0.5-1.4,1.2-1.4C346.4,367.4,347.1,368,347.1,368.7L347.1,368.7z M347.3,384.5c0,0.3-0.2,0.6-0.6,0.7
			c-0.3,0-0.6-0.2-0.7-0.6c0-0.3,0.2-0.6,0.6-0.7C347,383.9,347.3,384.2,347.3,384.5L347.3,384.5z M346.7,372.1
			c0,0.3-0.2,0.6-0.6,0.7c-0.3,0-0.6-0.2-0.7-0.6c0-0.3,0.2-0.6,0.6-0.7C346.4,371.5,346.7,371.7,346.7,372.1L346.7,372.1z
			 M347.7,380.3c0,0.3-0.2,0.6-0.6,0.7c-0.3,0-0.6-0.2-0.7-0.6c0-0.3,0.2-0.6,0.6-0.7C347.4,379.7,347.7,379.9,347.7,380.3
			L347.7,380.3z M346.8,364.5c0,0.3-0.2,0.5-0.5,0.5c-0.3,0-0.5-0.2-0.5-0.5c0-0.3,0.2-0.5,0.5-0.5
			C346.6,364,346.8,364.2,346.8,364.5L346.8,364.5z M351.1,383.7c0,0.7-0.5,1.4-1.3,1.4c-0.7,0-1.4-0.5-1.4-1.2
			c0-0.7,0.5-1.4,1.2-1.4C350.4,382.4,351.1,382.9,351.1,383.7L351.1,383.7z M350.9,375.7c0,0.7-0.5,1.4-1.3,1.4
			c-0.7,0-1.4-0.5-1.4-1.2c0-0.7,0.5-1.4,1.2-1.4C350.3,374.4,350.9,375,350.9,375.7L350.9,375.7z M349.6,367.5
			c0,0.3-0.2,0.6-0.6,0.7c-0.3,0-0.6-0.2-0.7-0.6c0-0.3,0.2-0.6,0.6-0.7C349.3,366.9,349.6,367.2,349.6,367.5L349.6,367.5z
			 M352.6,379.4c0,0.3-0.2,0.6-0.6,0.7s-0.6-0.2-0.7-0.6c0-0.3,0.2-0.6,0.6-0.7C352.3,378.8,352.6,379.1,352.6,379.4L352.6,379.4z
			 M351.5,361.4c0,0.3-0.2,0.5-0.5,0.5c-0.3,0-0.5-0.2-0.5-0.5c0-0.3,0.2-0.5,0.5-0.5C351.2,360.9,351.5,361.1,351.5,361.4
			L351.5,361.4z M353.1,368.4c0,0.3-0.2,0.5-0.5,0.5c-0.3,0-0.5-0.2-0.5-0.5c0-0.3,0.2-0.5,0.5-0.5
			C352.9,368,353.1,368.2,353.1,368.4L353.1,368.4z"/>
		<path class="st79" d="M343.5,364.6c0,0.5-0.4,1-0.9,1c-0.5,0-1-0.4-1-0.9c0-0.5,0.4-1,0.9-1C343,363.6,343.5,364,343.5,364.6
			L343.5,364.6z M346.9,357.4c0,0.6-0.5,1.2-1.1,1.2c-0.6,0-1.2-0.5-1.2-1.1c0-0.6,0.5-1.2,1.1-1.2
			C346.3,356.3,346.9,356.8,346.9,357.4L346.9,357.4z M349.8,367.2c0,0.6-0.5,1.2-1.1,1.2c-0.6,0-1.2-0.5-1.2-1.1
			c0-0.6,0.5-1.2,1.1-1.2C349.3,366.1,349.8,366.6,349.8,367.2L349.8,367.2z M354,357.4c0.1,1.4-1,2.5-2.3,2.6
			c-1.4,0.1-2.5-1-2.6-2.3c-0.1-1.4,1-2.5,2.3-2.6C352.8,355,354,356,354,357.4L354,357.4z M352.7,363.9c0,0.6-0.5,1.2-1.1,1.2
			c-0.6,0-1.2-0.5-1.2-1.1c0-0.6,0.5-1.2,1.1-1.2C352.1,362.8,352.7,363.3,352.7,363.9L352.7,363.9z M352.5,349
			c0,0.6-0.5,1.2-1.1,1.2c-0.6,0-1.2-0.5-1.2-1.1c0-0.6,0.5-1.2,1.1-1.2C351.9,347.9,352.5,348.4,352.5,349L352.5,349z M355.6,369.4
			c0,0.5-0.4,1-0.9,1c-0.5,0-1-0.4-1-0.9c0-0.5,0.4-1,0.9-1C355.1,368.5,355.5,368.9,355.6,369.4L355.6,369.4z M358.6,361.9
			c0,0.6-0.5,1.2-1.1,1.2c-0.6,0-1.2-0.5-1.2-1.1c0-0.6,0.5-1.2,1.1-1.2C358,360.8,358.6,361.3,358.6,361.9L358.6,361.9z
			 M360.5,347.6c0.1,1.4-1,2.5-2.3,2.6c-1.4,0.1-2.5-1-2.6-2.3c-0.1-1.4,1-2.5,2.3-2.6C359.3,345.2,360.5,346.3,360.5,347.6
			L360.5,347.6z M361,377.2c0,0.6-0.5,1.2-1.1,1.2c-0.6,0-1.2-0.5-1.2-1.1c0-0.6,0.5-1.2,1.1-1.2S360.9,376.5,361,377.2L361,377.2z
			 M359.9,353.9c0,0.6-0.5,1.2-1.1,1.2c-0.6,0-1.2-0.5-1.2-1.1c0-0.6,0.5-1.2,1.1-1.2C359.3,352.8,359.8,353.3,359.9,353.9
			L359.9,353.9z M361.7,369.2c0,0.6-0.5,1.2-1.1,1.2c-0.6,0-1.2-0.5-1.2-1.1c0-0.6,0.5-1.2,1.1-1.2
			C361.1,368.1,361.6,368.6,361.7,369.2L361.7,369.2z M360.1,339.7c0,0.5-0.4,1-0.9,1c-0.5,0-1-0.4-1-0.9c0-0.5,0.4-1,0.9-1
			C359.6,338.8,360,339.2,360.1,339.7L360.1,339.7z M368,375.6c0.1,1.4-1,2.5-2.3,2.6c-1.4,0.1-2.5-1-2.6-2.3
			c-0.1-1.4,1-2.5,2.3-2.6C366.8,373.2,368,374.2,368,375.6L368,375.6z M367.8,360.8c0.1,1.4-1,2.5-2.3,2.6c-1.4,0.1-2.5-1-2.6-2.3
			c-0.1-1.4,1-2.5,2.3-2.6C366.5,358.4,367.7,359.4,367.8,360.8L367.8,360.8z M365.3,345.4c0,0.6-0.5,1.2-1.1,1.2
			c-0.6,0-1.2-0.5-1.2-1.1c0-0.6,0.5-1.2,1.1-1.2C364.7,344.3,365.3,344.8,365.3,345.4L365.3,345.4z M370.9,367.7
			c0,0.6-0.5,1.2-1.1,1.2c-0.6,0-1.2-0.5-1.2-1.1c0-0.6,0.5-1.2,1.1-1.2C370.3,366.6,370.8,367,370.9,367.7L370.9,367.7z
			 M368.7,333.9c0,0.5-0.4,1-0.9,1c-0.5,0-1-0.4-1-0.9c0-0.5,0.4-1,0.9-1C368.3,333,368.7,333.4,368.7,333.9L368.7,333.9z
			 M371.9,347.1c0,0.5-0.4,1-0.9,1c-0.5,0-1-0.4-1-0.9c0-0.5,0.4-1,0.9-1C371.4,346.2,371.9,346.6,371.9,347.1L371.9,347.1z"/>
		<path class="st79" d="M301.8,400.5c0.3,0,0.5,0.4,0.4,0.7c-0.1,0.4-0.3,0.6-0.6,0.6s-0.5-0.4-0.4-0.7
			C301.2,400.7,301.5,400.5,301.8,400.5L301.8,400.5z M298.3,397.3c0.4,0.1,0.6,0.5,0.5,0.9c-0.1,0.4-0.4,0.7-0.8,0.7
			c-0.4-0.1-0.6-0.5-0.5-0.9C297.5,397.5,297.9,397.2,298.3,397.3L298.3,397.3z M304.2,396.6c0.4,0.1,0.6,0.5,0.5,0.9
			c-0.1,0.4-0.4,0.7-0.8,0.7c-0.4-0.1-0.6-0.5-0.5-0.9C303.5,396.8,303.8,396.5,304.2,396.6L304.2,396.6z M299.3,392.5
			c0.8,0.1,1.3,1,1.1,1.9c-0.2,0.9-0.9,1.6-1.7,1.5c-0.8-0.1-1.3-1-1.1-1.9C297.7,393,298.5,392.3,299.3,392.5L299.3,392.5z
			 M302.8,394.2c0.4,0.1,0.6,0.5,0.5,0.9c-0.1,0.4-0.4,0.7-0.8,0.7c-0.4-0.1-0.6-0.5-0.5-0.9C302,394.5,302.4,394.2,302.8,394.2
			L302.8,394.2z M294.3,392.4c0.4,0.1,0.6,0.5,0.5,0.9c-0.1,0.4-0.4,0.7-0.8,0.7c-0.4-0.1-0.6-0.5-0.5-0.9
			C293.6,392.7,294,392.3,294.3,392.4L294.3,392.4z M306.2,393c0.3,0,0.5,0.4,0.4,0.7c-0.1,0.4-0.3,0.6-0.6,0.6
			c-0.3,0-0.5-0.4-0.4-0.7C305.6,393.2,305.9,393,306.2,393L306.2,393z M302.5,390c0.4,0.1,0.6,0.5,0.5,0.9
			c-0.1,0.4-0.4,0.7-0.8,0.7c-0.4-0.1-0.6-0.5-0.5-0.9S302.1,389.9,302.5,390L302.5,390z M294.7,386.8c0.8,0.1,1.3,1,1.1,1.9
			c-0.2,0.9-0.9,1.6-1.7,1.5c-0.8-0.1-1.3-1-1.1-1.9C293.2,387.3,293.9,386.7,294.7,386.8L294.7,386.8z M311.4,390.4
			c0.4,0.1,0.6,0.5,0.5,0.9c-0.1,0.4-0.4,0.7-0.8,0.7c-0.4-0.1-0.6-0.5-0.5-0.9C310.7,390.7,311,390.3,311.4,390.4L311.4,390.4z
			 M298.2,388.1c0.4,0.1,0.6,0.5,0.5,0.9c-0.1,0.4-0.4,0.7-0.8,0.7c-0.4-0.1-0.6-0.5-0.5-0.9C297.4,388.3,297.8,388,298.2,388.1
			L298.2,388.1z M307,388.9c0.4,0.1,0.6,0.5,0.5,0.9c-0.1,0.4-0.4,0.7-0.8,0.7c-0.4-0.1-0.6-0.5-0.5-0.9
			C306.3,389.1,306.7,388.8,307,388.9L307,388.9z M290.2,386.1c0.3,0,0.5,0.4,0.4,0.7c-0.1,0.4-0.3,0.6-0.6,0.6
			c-0.3,0-0.5-0.4-0.4-0.7C289.6,386.3,289.9,386.1,290.2,386.1L290.2,386.1z M311.5,385.4c0.8,0.1,1.3,1,1.1,1.9
			c-0.2,0.9-0.9,1.6-1.7,1.5c-0.8-0.1-1.3-1-1.1-1.9C310,385.9,310.7,385.3,311.5,385.4L311.5,385.4z M303.1,383.7
			c0.8,0.1,1.3,1,1.1,1.9c-0.2,0.9-0.9,1.6-1.7,1.5c-0.8-0.1-1.3-1-1.1-1.9C301.6,384.2,302.4,383.5,303.1,383.7L303.1,383.7z
			 M294.1,383.3c0.4,0.1,0.6,0.5,0.5,0.9c-0.1,0.4-0.4,0.7-0.8,0.7c-0.4-0.1-0.6-0.5-0.5-0.9C293.4,383.6,293.8,383.3,294.1,383.3
			L294.1,383.3z M307.5,382.5c0.4,0.1,0.6,0.5,0.5,0.9c-0.1,0.4-0.4,0.7-0.8,0.7c-0.4-0.1-0.6-0.5-0.5-0.9
			C306.7,382.7,307.1,382.4,307.5,382.5L307.5,382.5z M288.2,379.5c0.3,0,0.5,0.4,0.4,0.7c-0.1,0.4-0.3,0.6-0.6,0.6
			c-0.3,0-0.5-0.4-0.4-0.7C287.6,379.7,287.9,379.4,288.2,379.5L288.2,379.5z M296,379.1c0.3,0,0.5,0.4,0.4,0.7
			c-0.1,0.4-0.3,0.6-0.6,0.6c-0.3,0-0.5-0.4-0.4-0.7C295.5,379.3,295.7,379,296,379.1L296,379.1z"/>
		<path class="st20" d="M129.6,318.6c-1.3-0.7-3.2-0.8-4.3-0.2l-6,3.5c-1.1,0.6-1,1.7,0.3,2.5l4.6,2.7c1.3,0.7,3.2,0.8,4.3,0.2
			l6-3.5c1.1-0.6,1-1.7-0.3-2.5L129.6,318.6L129.6,318.6z"/>
		<path class="st20" d="M192.7,282.2c-1.3-0.7-3.2-0.8-4.3-0.2l-6,3.5c-1.1,0.6-1,1.7,0.3,2.5l4.6,2.7c1.3,0.7,3.2,0.8,4.3,0.2
			l6-3.5c1.1-0.6,1-1.7-0.3-2.5L192.7,282.2L192.7,282.2z"/>
		<path class="st20" d="M37.9,265.3c-1.3-0.7-3.2-0.8-4.3-0.2l-6,3.5c-1.1,0.6-1,1.7,0.3,2.5l4.6,2.7c1.3,0.7,3.2,0.8,4.3,0.2l6-3.5
			c1.1-0.6,1-1.7-0.3-2.5L37.9,265.3L37.9,265.3z"/>
		<polygon class="st80" points="233.7,272.5 246,262 248.8,266.1 258.6,258.3 247,271.7 245.2,266.2 233.7,272.5 		"/>
		<path class="st81" d="M379.7,201.5c8.3-4.8,21.9-4.8,30.2,0c8.3,4.8,8.3,12.6,0,17.4c-8.3,4.8-21.9,4.8-30.2,0
			C371.4,214.1,371.4,206.3,379.7,201.5L379.7,201.5z"/>
		<path class="st82" d="M383.5,203.7c6.2-3.6,16.4-3.6,22.6,0c6.2,3.6,6.2,9.4,0,13c-6.2,3.6-16.4,3.6-22.6,0
			C377.3,213.1,377.3,207.3,383.5,203.7L383.5,203.7z"/>
		<path class="st83" d="M384.6,204.3c5.6-3.3,14.8-3.3,20.5,0c5.6,3.3,5.6,8.6,0,11.8c-5.6,3.3-14.8,3.3-20.5,0
			C379,212.8,379,207.5,384.6,204.3L384.6,204.3z"/>
		<path class="st84" d="M385.6,204.8c5.1-3,13.4-3,18.5,0c5.1,3,5.1,7.7,0,10.7c-5.1,3-13.4,3-18.5,0
			C380.5,212.6,380.5,207.8,385.6,204.8L385.6,204.8z"/>
		<path class="st85" d="M386.4,205.3c4.6-2.7,12.2-2.7,16.8,0c4.6,2.7,4.6,7,0,9.7c-4.6,2.7-12.2,2.7-16.8,0
			C381.8,212.4,381.8,208,386.4,205.3L386.4,205.3z"/>
		<path class="st86" d="M400.4,209.1c0,0.8-0.5,1.6-1.6,2.2c-2.1,1.2-5.6,1.2-7.8,0c-1.1-0.6-1.6-1.4-1.6-2.2v-34.6h11V209.1
			L400.4,209.1z"/>
	</g>
	<g>
		<defs>
			<path id="SVGID_71_" d="M400.4,209.1c0,0.8-0.5,1.6-1.6,2.2c-2.1,1.2-5.6,1.2-7.8,0c-1.1-0.6-1.6-1.4-1.6-2.2v-34.6h11V209.1
				L400.4,209.1z"/>
		</defs>
		<clipPath id="SVGID_72_">
			<use xlink:href="#SVGID_71_"  style="overflow:visible;"/>
		</clipPath>
		<polygon class="st87" points="394.9,170.7 383.1,170.7 383.1,217 394.9,217 394.9,170.7 		"/>
	</g>
	<g>
		<path class="st88" d="M391,172.9c2.1-1.2,5.6-1.2,7.8,0c2.1,1.2,2.1,3.2,0,4.5c-2.1,1.2-5.6,1.2-7.8,0
			C388.9,176.1,388.9,174.1,391,172.9L391,172.9z"/>
		<path class="st89" d="M394.8,140.2c17.2,0,31.1,13.9,31.1,31.1c0,17.2-13.9,31.1-31.1,31.1c-17.2,0-31.1-13.9-31.1-31.1
			C363.8,154.1,377.7,140.2,394.8,140.2L394.8,140.2z"/>
	</g>
	<g>
		<defs>
			<path id="SVGID_73_" d="M394.8,140.2c17.2,0,31.1,13.9,31.1,31.1c0,17.2-13.9,31.1-31.1,31.1c-17.2,0-31.1-13.9-31.1-31.1
				C363.8,154.1,377.7,140.2,394.8,140.2L394.8,140.2z"/>
		</defs>
		<clipPath id="SVGID_74_">
			<use xlink:href="#SVGID_73_"  style="overflow:visible;"/>
		</clipPath>
		<path class="st90" d="M394.2,136.5c17.9,0,32.4,14.5,32.4,32.4c0,17.9-14.5,32.4-32.4,32.4c-17.9,0-32.4-14.5-32.4-32.4
			C361.8,151.1,376.3,136.5,394.2,136.5L394.2,136.5z"/>
		<path class="st91" d="M393.5,135.3c17.9,0,32.4,14.5,32.4,32.4c0,17.9-14.5,32.4-32.4,32.4c-17.9,0-32.4-14.5-32.4-32.4
			C361.1,149.8,375.6,135.3,393.5,135.3L393.5,135.3z"/>
		<path class="st92" d="M392.9,138.2c16.7,0,30.3,13.6,30.3,30.3c0,16.7-13.6,30.3-30.3,30.3c-16.7,0-30.3-13.6-30.3-30.3
			C362.6,151.7,376.1,138.2,392.9,138.2L392.9,138.2z"/>
		<path class="st93" d="M389.7,136.9c16.1,0,29.2,13.1,29.2,29.2c0,16.1-13.1,29.2-29.2,29.2c-16.1,0-29.2-13.1-29.2-29.2
			C360.5,150,373.6,136.9,389.7,136.9L389.7,136.9z"/>
		<path class="st94" d="M391.8,133.8c15.5,0,28,12.6,28,28c0,15.5-12.6,28-28,28c-15.5,0-28-12.6-28-28
			C363.8,146.3,376.3,133.8,391.8,133.8L391.8,133.8z"/>
	</g>
	<g>
		<path class="st81" d="M170.1,192.1c10.2-5.9,26.6-5.9,36.8,0c10.2,5.9,10.2,15.4,0,21.2c-10.2,5.9-26.6,5.9-36.8,0
			C160,207.4,160,197.9,170.1,192.1L170.1,192.1z"/>
		<path class="st82" d="M174.7,194.7c7.6-4.4,19.9-4.4,27.5,0c7.6,4.4,7.6,11.5,0,15.9s-19.9,4.4-27.5,0
			C167.1,206.2,167.1,199.1,174.7,194.7L174.7,194.7z"/>
		<path class="st83" d="M176,195.5c6.9-4,18.1-4,24.9,0c6.9,4,6.9,10.4,0,14.4c-6.9,4-18.1,4-24.9,0
			C169.2,205.9,169.2,199.4,176,195.5L176,195.5z"/>
		<path class="st84" d="M177.2,196.2c6.2-3.6,16.4-3.6,22.6,0c6.2,3.6,6.2,9.4,0,13c-6.2,3.6-16.4,3.6-22.6,0
			C171,205.6,171,199.8,177.2,196.2L177.2,196.2z"/>
		<path class="st85" d="M178.3,196.8c5.6-3.3,14.8-3.3,20.5,0c5.6,3.3,5.6,8.6,0,11.8c-5.6,3.3-14.8,3.3-20.5,0
			C172.6,205.3,172.6,200,178.3,196.8L178.3,196.8z"/>
		<path class="st86" d="M195.3,201.3c0,1-0.7,2-2,2.7c-2.6,1.5-6.8,1.5-9.5,0c-1.3-0.8-2-1.7-2-2.7v-42.2h13.4V201.3L195.3,201.3z"
			/>
	</g>
	<g>
		<defs>
			<path id="SVGID_75_" d="M195.3,201.3c0,1-0.7,2-2,2.7c-2.6,1.5-6.8,1.5-9.5,0c-1.3-0.8-2-1.7-2-2.7v-42.2h13.4V201.3L195.3,201.3
				z"/>
		</defs>
		<clipPath id="SVGID_76_">
			<use xlink:href="#SVGID_75_"  style="overflow:visible;"/>
		</clipPath>
		<polygon class="st95" points="188.6,154.5 174.1,154.5 174.1,211 188.6,211 188.6,154.5 		"/>
	</g>
	<g>
		<path class="st88" d="M183.8,157.2c2.6-1.5,6.8-1.5,9.5,0c2.6,1.5,2.6,4,0,5.5c-2.6,1.5-6.8,1.5-9.5,0
			C181.2,161.2,181.2,158.7,183.8,157.2L183.8,157.2z"/>
		<path class="st89" d="M188.5,117.3c20.9,0,37.9,17,37.9,37.9c0,20.9-17,37.9-37.9,37.9c-20.9,0-37.9-17-37.9-37.9
			C150.6,134.3,167.6,117.3,188.5,117.3L188.5,117.3z"/>
	</g>
	<g>
		<defs>
			<path id="SVGID_77_" d="M188.5,117.3c20.9,0,37.9,17,37.9,37.9c0,20.9-17,37.9-37.9,37.9c-20.9,0-37.9-17-37.9-37.9
				C150.6,134.3,167.6,117.3,188.5,117.3L188.5,117.3z"/>
		</defs>
		<clipPath id="SVGID_78_">
			<use xlink:href="#SVGID_77_"  style="overflow:visible;"/>
		</clipPath>
		<path class="st96" d="M187.7,112.9c21.8,0,39.5,17.7,39.5,39.5c0,21.8-17.7,39.5-39.5,39.5c-21.8,0-39.5-17.7-39.5-39.5
			C148.2,130.6,165.9,112.9,187.7,112.9L187.7,112.9z"/>
		<path class="st97" d="M186.9,111.3c21.8,0,39.5,17.7,39.5,39.5c0,21.8-17.7,39.5-39.5,39.5c-21.8,0-39.5-17.7-39.5-39.5
			C147.3,129.1,165,111.3,186.9,111.3L186.9,111.3z"/>
		<path class="st98" d="M186.1,114.9c20.4,0,36.9,16.6,36.9,36.9c0,20.4-16.6,36.9-36.9,36.9c-20.4,0-36.9-16.6-36.9-36.9
			C149.2,131.4,165.7,114.9,186.1,114.9L186.1,114.9z"/>
		<path class="st99" d="M182.2,113.3c19.7,0,35.6,16,35.6,35.6c0,19.7-16,35.6-35.6,35.6c-19.7,0-35.6-16-35.6-35.6
			C146.6,129.3,162.6,113.3,182.2,113.3L182.2,113.3z"/>
		<path class="st100" d="M184.8,109.5c18.8,0,34.1,15.3,34.1,34.1c0,18.8-15.3,34.1-34.1,34.1c-18.8,0-34.1-15.3-34.1-34.1
			C150.6,124.8,165.9,109.5,184.8,109.5L184.8,109.5z"/>
	</g>
	<g>
		<path class="st101" d="M357.4,386.1l-14-8.1l14.8-6.3C354.4,375.1,354,382.3,357.4,386.1L357.4,386.1z"/>
		<path class="st101" d="M296.8,399.1l11.9-10.8l1.5,16.1C308.2,399.7,301.5,397.1,296.8,399.1L296.8,399.1z"/>
		<path class="st101" d="M351.7,270.1l16.6-1l-9.2,13.9C360.6,277.9,356.8,271.5,351.7,270.1L351.7,270.1z"/>
		<path class="st101" d="M338.7,289.1v14.6c0,1.4-1.1,2.5-2.5,2.5c-1.4,0-2.5-1.1-2.5-2.5v-16c0-0.9,0.5-1.7,1.2-2.1
			c0,0,12.4-7.2,21.8-12.6c1.2-0.7,2.7-0.3,3.4,0.9c0.7,1.2,0.3,2.7-0.9,3.4L338.7,289.1L338.7,289.1z"/>
		<path class="st101" d="M306.9,216.5l7.4-14.9l7.4,14.9C318,212.8,310.6,212.8,306.9,216.5L306.9,216.5z"/>
		<path class="st101" d="M316.8,228.7l16.8,9.7c1.2,0.7,1.6,2.2,0.9,3.4c-0.7,1.2-2.2,1.6-3.4,0.9l-18-10.4
			c-0.8-0.4-1.2-1.3-1.2-2.1c0,0,0-8.8,0-16.6c0-1.4,1.1-2.5,2.5-2.5c1.4,0,2.5,1.1,2.5,2.5V228.7L316.8,228.7z"/>
		<path class="st101" d="M307.1,159.8l7.4-14.9l7.4,14.9C318.3,156.1,310.8,156.1,307.1,159.8L307.1,159.8z"/>
		<path class="st101" d="M317,184.9c0,0,0-16.3,0-28.1c0-1.4-1.1-2.5-2.5-2.5c-1.4,0-2.5,1.1-2.5,2.5c0,11.8,0,28.1,0,28.1
			c0,1.4,1.1,2.5,2.5,2.5C315.9,187.4,317,186.3,317,184.9L317,184.9z"/>
		<path class="st101" d="M442,222.8l16.6-1l-9.2,13.9C450.8,230.6,447,224.2,442,222.8L442,222.8z"/>
		<path class="st101" d="M424.4,244.4c0,0,14.6-8.4,25.1-14.5c1.2-0.7,1.6-2.2,0.9-3.4c-0.7-1.2-2.2-1.6-3.4-0.9
			c-10.4,6-25.1,14.5-25.1,14.5c-1.2,0.7-1.6,2.2-0.9,3.4C421.7,244.7,423.3,245.1,424.4,244.4L424.4,244.4z"/>
		<path class="st101" d="M379.3,206.4l9.2,13.9l-16.6-1C377,217.9,380.7,211.4,379.3,206.4L379.3,206.4z"/>
		<path class="st101" d="M364.3,203.4l15.1,8.7c1.2,0.7,1.6,2.2,0.9,3.4c-0.7,1.2-2.2,1.6-3.4,0.9c-7.5-4.3-16.3-9.4-16.3-9.4
			c-0.8-0.4-1.2-1.3-1.2-2.1v-17.7c0-1.4,1.1-2.5,2.5-2.5c1.4,0,2.5,1.1,2.5,2.5V203.4L364.3,203.4z"/>
		<path class="st101" d="M371.1,364.4c0,0-2.6,12.7-16,12c-1.3-0.1-2.5,0.9-2.5,2.3c-0.1,1.3,0.9,2.5,2.3,2.5
			c17.6,1,21-15.8,21-15.8c0.3-1.3-0.6-2.6-1.9-2.8C372.6,362.2,371.4,363.1,371.1,364.4L371.1,364.4z"/>
		<path class="st101" d="M283.7,412.4c0,0,16.7,3.9,23.1-12.5c0.5-1.2-0.1-2.6-1.4-3.1c-1.2-0.5-2.6,0.1-3.1,1.4
			c-4.9,12.5-17.5,9.6-17.5,9.6c-1.3-0.3-2.6,0.5-2.9,1.8C281.6,410.8,282.4,412.1,283.7,412.4L283.7,412.4z"/>
		<path class="st80" d="M115,187.3l2.7,15.9l-14.4-7.3C108.4,196.7,114.2,192.4,115,187.3L115,187.3z"/>
		<path class="st80" d="M78.4,153.9l30.5,41.5c0.8,1.1,2.3,1.3,3.4,0.5c1.1-0.8,1.3-2.3,0.5-3.4L82.3,151c-0.8-1.1-2.3-1.3-3.4-0.5
			C77.9,151.3,77.6,152.8,78.4,153.9L78.4,153.9z"/>
		<path class="st80" d="M75.6,187.6l3,15.8l-14.5-7.1C69.2,197,74.9,192.6,75.6,187.6L75.6,187.6z"/>
		<path class="st80" d="M20.5,131.2l49.2,64.5c0.8,1.1,2.3,1.3,3.4,0.5c1.1-0.8,1.3-2.3,0.5-3.4l-49.2-64.6
			c-0.8-1.1-2.3-1.3-3.4-0.5C19.9,128.6,19.7,130.1,20.5,131.2L20.5,131.2z"/>
		<path class="st80" d="M78.6,228.7l3.7,15.7L67.5,238C72.6,238.4,78.1,233.8,78.6,228.7L78.6,228.7z"/>
		<path class="st80" d="M39.6,197.2l33.4,39.9c0.9,1,2.4,1.1,3.4,0.3c1-0.9,1.1-2.4,0.3-3.4l-33.4-39.9c-0.9-1-2.4-1.1-3.4-0.3
			C38.9,194.7,38.8,196.2,39.6,197.2L39.6,197.2z"/>
	</g>
</g>
</svg>
