<?xml version="1.0" encoding="utf-8"?>
<!-- Generator: Adobe Illustrator 24.2.3, SVG Export Plug-In . SVG Version: 6.00 Build 0)  -->
<svg version="1.1" id="Layer_1" xmlns="http://www.w3.org/2000/svg" xmlns:xlink="http://www.w3.org/1999/xlink" x="0px" y="0px"
	 viewBox="0 0 512 512" enable-background="new 0 0 512 512" xml:space="preserve">
<g>
	<path fill="#6CB544" d="M506,84.409c0-36.364-52.273-65.152-118.182-65.152c-66.667,0-118.182,28.788-118.182,65.152v53.788
		c0,0.758,0,1.515,0,3.03c0,0.758,0,0.758,0,1.515v53.788c0,0.758,0,1.515,0,3.03c0,0.758,0,0.758,0,1.515v53.788
		c0,0.758,0,1.515,0,3.03c0,0.758,0,0.758,0,1.515v53.788c0,0.758,0,1.515,0,3.03c0,0.758,0,0.758,0,1.515v51.515
		c0,0.758,0,1.515,0,3.03c0,0.758,0,0.758,0,1.515v53.788c0,36.364,52.273,65.152,118.182,65.152
		c66.667,0,118.182-28.788,118.182-65.151v-53.788c0-0.758,0-0.758,0-1.515c0-0.758,0-1.515,0-3.03V315.47c0-0.758,0-0.758,0-1.515
		c0-0.758,0-1.515,0-3.03v-53.788c0-0.758,0-0.758,0-1.515c0-0.758,0-1.515,0-3.03v-53.788c0-0.758,0-0.758,0-1.515
		c0-0.758,0-1.515,0-3.03v-52.273c0-0.758,0-0.758,0-1.515s0-1.515,0-3.03V84.409z M387.818,419.258
		c-56.061,0-103.03-22.727-103.03-50v-25c20.455,19.697,58.333,32.576,103.03,32.576s83.333-12.879,103.03-32.576v25
		C490.848,396.53,443.879,419.258,387.818,419.258z M387.818,361.682c-56.061,0-103.03-22.727-103.03-50v-25.758
		c20.455,19.697,58.333,32.576,103.03,32.576s83.333-12.879,103.03-32.576v25C490.848,338.197,443.879,361.682,387.818,361.682z
		 M387.818,304.106c-56.061,0-103.03-22.727-103.03-50v-25c20.455,19.697,58.333,32.576,103.03,32.576s83.333-12.879,103.03-32.576
		v25C490.848,280.621,443.879,304.106,387.818,304.106z M387.818,245.773c-56.061,0-103.03-22.727-103.03-50v-25
		c20.455,19.697,58.333,32.576,103.03,32.576s83.333-12.879,103.03-32.576v25C490.848,223.045,443.879,245.773,387.818,245.773z
		 M291.606,123.045c0.758,0.758,1.515,1.515,2.273,1.515c2.273,1.515,4.545,3.03,7.576,4.545c0.758,0,0.758,0.758,1.515,0.758
		c3.03,1.515,6.818,3.788,9.848,5.303c0.758,0.758,2.273,0.758,3.03,1.515c3.03,1.515,5.303,2.273,8.333,3.03
		c1.515,0.758,2.273,0.758,3.788,1.515c3.788,0.758,7.576,2.273,11.364,3.03c0.758,0,0.758,0,1.515,0.758
		c4.545,0.758,9.091,1.515,12.879,2.273c1.515,0,2.273,0,3.788,0.758c3.788,0.758,6.818,0.758,10.606,1.515c1.515,0,3.03,0,4.545,0
		c4.545,0,9.848,0.758,15.152,0.758c5.303,0,9.848,0,15.151-0.758c1.515,0,3.03,0,4.545,0c3.788,0,6.818-0.758,10.606-1.515
		c1.515,0,2.273,0,3.788-0.758c4.545-0.758,9.091-1.515,13.636-2.273c0.758,0,0.758,0,1.515,0c3.788-0.758,7.576-2.273,11.364-3.03
		c1.515-0.758,2.273-0.758,3.788-1.515c3.03-0.758,6.061-2.273,8.333-3.03c0.758-0.758,2.273-0.758,3.03-1.515
		c3.788-1.515,6.818-3.03,9.849-5.303c0.758,0,0.758-0.758,1.515-0.758c2.273-1.515,5.303-3.03,7.576-4.545
		c0.758-0.758,1.515-1.515,2.273-1.515c2.273-1.515,3.788-3.03,6.061-4.545c0.758-0.758,0.758-0.758,1.515-1.515v21.212
		c0,27.273-46.97,50-103.03,50s-103.03-22.727-103.03-50v-21.212c0.758,0.758,0.758,0.758,1.515,1.515
		C287.818,120.015,289.333,121.53,291.606,123.045z M387.818,34.409c56.061,0,103.03,22.727,103.03,50s-46.97,50-103.03,50
		s-103.03-22.727-103.03-50S331.758,34.409,387.818,34.409z M387.818,476.833c-56.061,0-103.03-22.727-103.03-50v-25
		c20.455,19.697,58.333,32.576,103.03,32.576s83.333-12.879,103.03-32.576v25C490.848,454.106,443.879,476.833,387.818,476.833z"/>
	<path fill="#6CB544" d="M386.303,101.076c-5.303,0-11.364-0.758-15.909-3.03l-1.515-0.758l-4.545,8.333l1.515,0.758
		c3.788,1.515,9.091,3.03,15.152,3.03h1.515v7.576h10.606v-8.333h1.515c10.606-2.273,16.667-7.576,16.667-14.394
		c0-9.091-9.091-12.879-18.939-15.909c-9.848-2.273-12.879-4.545-12.879-6.818s3.03-4.545,10.606-4.545s12.121,1.515,13.636,2.273
		l1.515,0.758l4.545-8.333l-2.273,0c-3.788-1.515-7.576-2.273-12.121-2.273h-1.515v-7.576h-10.606v7.576h-1.515
		c-9.848,1.515-15.909,6.818-15.909,13.636c0,8.333,9.848,12.121,20.455,15.152c8.333,2.273,11.364,4.545,11.364,7.576
		C397.667,98.045,393.879,101.076,386.303,101.076z"/>
	<path fill="#6CB544" d="M122.667,332.136c-5.303,0-11.364-0.758-15.909-3.03l-1.515-0.758l-4.545,8.333l1.515,0.758
		c3.788,1.515,9.091,3.03,15.152,3.03h1.515v7.576h10.606v-8.333H131c10.606-2.273,16.667-7.576,16.667-14.394
		c0-9.091-9.091-12.879-18.939-15.909c-9.848-2.273-12.879-4.545-12.879-6.818s3.03-4.545,10.606-4.545s12.121,1.515,13.636,2.273
		l1.515,0.758l4.545-8.333l-2.273-0.758c-3.788-1.515-7.576-2.273-12.121-2.273h-1.515v-7.576h-10.606v7.576h-1.515
		c-9.848,1.515-15.909,6.818-15.909,13.636c0,8.333,9.848,12.121,20.455,15.152c8.333,2.273,11.364,4.545,11.364,7.576
		C134.788,329.106,130.242,332.136,122.667,332.136z"/>
	<path fill="#6CB544" d="M124.182,250.318C58.273,250.318,6,278.348,6,315.47v53.788c0,0.758,0,1.515,0,3.03
		c0,0.758,0,0.758,0,1.515v53.788c0,36.364,52.273,65.152,118.182,65.152s118.182-28.788,118.182-65.151v-53.788
		c0-0.758,0-0.758,0-1.515c0-0.758,0-1.515,0-3.03V315.47C243.121,278.348,190.848,250.318,124.182,250.318z M124.182,265.47
		c56.061,0,103.03,22.727,103.03,50c0,27.273-46.97,50-103.03,50s-103.03-22.727-103.03-50S68.121,265.47,124.182,265.47z
		 M227.97,348.045v21.212c0,27.273-46.97,50-103.03,50s-103.788-22.727-103.788-50v-21.212c0.758,0.758,0.758,0.758,1.515,0.758
		c1.515,1.515,3.788,3.03,6.061,5.303c0.758,0.758,1.515,1.515,2.273,1.515c2.273,1.515,4.545,3.03,7.576,4.545
		c0.758,0,0.758,0.758,1.515,0.758c3.03,1.515,6.818,3.788,9.848,5.303c0.758,0.758,2.273,0.758,3.03,1.515
		c3.03,1.515,6.061,2.273,8.333,3.03c1.515,0.758,2.273,0.758,3.788,1.515c3.788,0.758,7.576,2.273,11.364,3.03
		c0.758,0,0.758,0,1.515,0c4.545,0.758,9.091,1.515,13.636,2.273c1.515,0,2.273,0,3.788,0.758c3.788,0.758,6.818,0.758,10.606,1.515
		c1.515,0,3.03,0,4.545,0c4.545,0,9.848,0.758,15.152,0.758c5.303,0,9.848,0,15.152-0.758c1.515,0,3.03,0,4.545,0
		c3.788,0,6.818-0.758,10.606-1.515c1.515,0,2.273,0,3.788-0.758c4.545-0.758,9.091-1.515,13.636-2.273c0.758,0,0.758,0,1.515,0
		c3.788-0.758,7.576-2.273,11.364-3.03c1.515,0,2.273-0.758,3.788-1.515c3.03-0.758,6.061-2.273,8.333-3.03
		c0.758-0.758,2.273-0.758,3.03-1.515c3.788-1.515,6.818-3.03,9.848-5.303c0.758,0,0.758-0.758,1.515-0.758
		c2.273-1.515,5.303-3.03,7.576-4.545c0.758-0.758,1.515-1.515,2.273-1.515c2.273-1.515,3.788-3.03,6.061-5.303
		C226.455,348.045,227.212,348.045,227.97,348.045z M124.182,476.833c-56.061,0-103.03-22.727-103.03-50v-25
		c20.455,19.697,58.333,32.576,103.03,32.576s83.333-12.879,103.03-32.576v25C227.97,454.106,180.242,476.833,124.182,476.833z"/>
	<path fill="#6CB544" d="M20.394,117.742c0,0.758,0,0.758-0.758,1.515l0,0l0,0v0.758c0,0.758,0,1.515,0.758,2.273
		c0,0.758,0.758,1.515,1.515,1.515c0,0,0,0.758,0.758,0.758l96.97,96.97c0,0,0,0,0.758,0c0.758,0.758,0.758,0.758,1.515,0.758h0.758
		c0.758,0,1.515,0.758,2.273,0.758l0,0l0,0l0,0c0.758,0,1.515,0,2.273-0.758h0.758c0.758,0,1.515-0.758,1.515-0.758s0,0,0.758,0
		l96.97-96.97c0.758-0.758,1.515-1.515,1.515-2.273c0-0.758,0-0.758,0-1.515c0-0.758,0-0.758,0-1.515l0,0l0,0
		c0-0.758,0-0.758,0-1.515s0-1.515-0.758-1.515l-0.758-0.758c0-0.758-0.758-0.758-0.758-1.515l0,0l-52.273-47.727
		c-1.515-1.515-3.03-2.273-5.303-2.273h-32.576c0,0,0,0-0.758,0h-22.727c0,0,0,0-0.758,0H79.485c-2.273,0-3.788,0.758-5.303,2.273
		l-52.273,47.727l0,0c-0.758,0-0.758,0.758-0.758,1.515l-0.758,0.758C20.394,116.985,20.394,116.985,20.394,117.742z
		 M82.515,126.833l22.727,59.091l-59.848-59.091H82.515z M131,79.106l17.424,32.576H99.939l17.424-32.576H131z M202.97,126.833
		l-59.091,59.091l22.727-59.091H202.97z M150.697,126.833l-25.758,68.182l-25.758-68.182H150.697z M202.212,111.682h-35.606
		l-17.424-32.576h17.424L202.212,111.682z M82.515,79.106h17.424l-16.667,32.576H46.909L82.515,79.106z"/>
</g>
</svg>
