<?xml version="1.0" encoding="utf-8"?>
<!-- Generator: Adobe Illustrator 24.2.3, SVG Export Plug-In . SVG Version: 6.00 Build 0)  -->
<svg version="1.1" id="Layer_1" xmlns="http://www.w3.org/2000/svg" xmlns:xlink="http://www.w3.org/1999/xlink" x="0px" y="0px"
	 viewBox="0 0 512 512" enable-background="new 0 0 512 512" xml:space="preserve">
<g>
	<path fill="#6CB544" d="M357.511,269.271c-12.5-12.536-33.111-15.827-49.008-7.827l-0.811,0.408L180.875,135.053L163.33,69.911
		c-1.373-5.066-5.807-10.587-10.544-13.124l-77.96-41.333c-2.045-1.059-4.428-1.565-6.841-1.565c-4.207,0-8.51,1.538-11.297,4.367
		L18.23,56.641c-4.652,4.652-5.829,12.497-2.738,18.246l41.249,77.9c2.5,4.779,7.903,9.11,13.144,10.539l65.084,17.599
		l126.856,126.835l-0.411,0.812c-8.272,16.365-5.126,36.052,7.827,48.989l128.23,128.211c7.997,8.031,18.639,12.454,29.97,12.454
		c11.323,0,21.973-4.423,29.986-12.453l28.352-28.317c16.514-16.532,16.514-43.404,0-59.901L357.511,269.271z M475.22,446.861
		l-28.353,28.317c-5.216,5.215-12.102,8.086-19.392,8.086c-7.328,0-14.203-2.86-19.359-8.054L279.872,346.931
		c-9.589-9.552-10.67-24.906-2.513-35.713c2.254-2.982,1.965-7.195-0.674-9.801L144.16,168.889
		c-0.942-0.957-2.061-1.603-3.334-1.925L73.825,148.87c-1.246-0.363-3.237-1.979-3.83-3.094L28.152,67.94l38.87-39.654
		l78.721,41.685c1.16,0.592,2.744,2.618,3.114,3.75l18.089,67.099c0.324,1.298,0.972,2.43,1.93,3.388l132.484,132.484
		c2.613,2.613,6.823,2.894,9.79,0.661c10.667-8.001,26.393-6.896,35.803,2.514L475.236,408.15
		C485.877,418.809,485.869,436.173,475.22,446.861z"/>
	<path fill="#6CB544" d="M267.253,193.077l69.79-69.807c1.842-1.843,2.606-4.546,1.993-7.056
		c-6.397-26.361,1.197-53.522,20.315-72.658c14.505-14.542,33.754-22.552,54.201-22.552h4.185l-35.362,35.4
		c-1.886,1.871-2.631,4.633-1.948,7.213l13.22,49.412c0.685,2.56,2.716,4.584,5.299,5.279l49.397,13.274
		c2.576,0.685,5.354-0.055,7.248-1.933l35.375-35.357l0.04,2.975c0.279,20.885-7.736,40.555-22.569,55.389
		c-19.134,19.097-46.301,26.684-72.674,20.297c-2.549-0.601-5.187,0.141-7.04,1.994l-62.179,62.145
		c0.25-0.02,0.505-0.031,0.766-0.031c5.582,0,11.376,0.903,17.694,2.76l51.409-51.373l0.649,0.12
		c29.93,5.525,60.562-3.945,81.953-25.335c22.753-22.771,31.879-55.104,24.411-86.488c-0.631-2.645-2.637-4.747-5.236-5.485
		c-2.628-0.725-5.45,0.015-7.348,1.931l-42.792,42.827l-41.042-11.054l-10.979-41.059l42.751-42.75
		c1.908-1.924,2.642-4.738,1.914-7.34c-0.749-2.601-2.845-4.616-5.468-5.249c-31.423-7.488-63.742,1.632-86.448,24.392
		c-21.471,21.471-30.942,52.112-25.336,81.968l0.123,0.651l-66.889,66.888L267.253,193.077z"/>
	<path fill="#6CB544" d="M236.972,326.736l-61.999,61.982c-1.866,1.882-2.613,4.521-1.994,7.056
		c6.363,26.388-1.238,53.563-20.332,72.694c-15.075,15.131-34.761,23.137-55.409,22.533l-2.913-0.084l35.299-35.28
		c1.887-1.902,2.634-4.68,1.947-7.245l-13.202-49.38c-0.707-2.584-2.745-4.624-5.317-5.316l-49.414-13.238
		c-2.606-0.646-5.381,0.104-7.224,1.962l-35.359,35.322l-0.045-2.967c-0.316-20.855,7.687-40.526,22.532-55.39
		c19.212-19.158,46.395-26.761,72.713-20.332c2.588,0.551,5.233-0.19,7.038-1.995l69.79-69.773l-10.595-10.595l-66.869,66.886
		l-0.651-0.122c-29.872-5.59-60.528,3.878-82.004,25.335c-22.735,22.736-31.854,55.054-24.391,86.453
		c0.629,2.641,2.642,4.743,5.252,5.485c2.554,0.749,5.427-0.01,7.332-1.931l42.79-42.754l41.06,10.978l10.998,41.06l-42.768,42.788
		c-1.925,1.909-2.658,4.703-1.917,7.296c0.745,2.64,2.836,4.651,5.458,5.253C83.903,505.132,91.219,506,98.536,506
		c24.414,0,47.406-9.567,64.74-26.936c21.444-21.48,30.923-52.123,25.354-81.969l-0.121-0.651l51.078-51.078
		C237.748,339.342,236.872,333.092,236.972,326.736z"/>
</g>
</svg>
