<?xml version="1.0" encoding="utf-8"?>
<!-- Generator: Adobe Illustrator 24.2.3, SVG Export Plug-In . SVG Version: 6.00 Build 0)  -->
<svg version="1.1" id="Layer_1" xmlns="http://www.w3.org/2000/svg" xmlns:xlink="http://www.w3.org/1999/xlink" x="0px" y="0px"
	 viewBox="0 0 512 512" enable-background="new 0 0 512 512" xml:space="preserve">
<g>
	<rect x="471.381" y="118.141" fill="#6CB544" width="34.619" height="13.183"/>
	
		<rect x="308.966" y="35.708" transform="matrix(0.7071 -0.7071 0.7071 0.7071 54.9357 238.6603)" fill="#6CB544" width="13.18" height="34.618"/>
	<path fill="#6CB544" d="M413.04,166.95c-1.087-2.276-3.419-3.745-5.94-3.745c-0.001,0-0.002,0-0.003,0H104.913
		c-0.001,0-0.003,0-0.005,0c-2.524,0-4.854,1.469-5.942,3.743L6.653,359.746c-0.763,1.589-0.861,3.376-0.277,5.037
		c0.583,1.66,1.778,2.993,3.365,3.755c0.883,0.424,1.867,0.648,2.847,0.648c0.001,0,0.002,0,0.004,0h200.019v74.719h-42.105
		c-19.796,0.021-35.92,16.145-35.941,35.945v26.148h242.871v-26.152c-0.02-19.794-16.142-35.918-35.939-35.941h-42.101v-74.719
		h200.011c3.635-0.013,6.591-2.991,6.578-6.638c-0.003-0.967-0.224-1.938-0.639-2.813L413.04,166.95z M402.944,176.389
		l39.843,83.214H327.378l-13.281-83.214H402.944z M211.263,176.389h89.48l13.283,83.214H197.981L211.263,176.389z M109.066,176.389
		h88.847l-13.282,83.214H69.22L109.066,176.389z M169.243,356.002H23.061l39.847-83.217l119.618,0.001L169.243,356.002z
		 M341.503,457.088c12.534,0.017,22.739,10.224,22.753,22.754v12.975H147.748v-12.971c0.014-12.537,10.222-22.744,22.755-22.758
		H341.503z M225.793,443.905v-74.719h60.423v74.719H225.793z M182.596,356.002l13.281-83.215l120.254,0.001l13.282,83.214H182.596z
		 M342.764,356.002l-13.283-83.214l119.618-0.003l39.845,83.217H342.764z"/>
	<rect x="380.68" y="6.002" fill="#6CB544" width="13.182" height="34.62"/>
	<path fill="#6CB544" d="M332.732,133.569h13.433c-1.991-9.028-0.961-18.42,3.022-26.904c9.869-21.025,35.002-30.101,56.026-20.231
		c10.185,4.781,17.898,13.242,21.719,23.823c3.449,9.553,3.354,19.802-0.214,29.197c3.97,2.552,7.427,5.879,10.135,9.74
		c3.754-7.587,5.713-15.939,5.706-24.471v-0.003c0-3.911-0.418-7.833-1.243-11.658c-3.113-14.432-11.659-26.787-24.065-34.79
		c-12.406-8.002-27.186-10.696-41.616-7.583C346.779,76.913,328.039,104.754,332.732,133.569z"/>
	
		<rect x="441.677" y="46.427" transform="matrix(0.7071 -0.7071 0.7071 0.7071 96.9454 340.0805)" fill="#6CB544" width="34.618" height="13.18"/>
</g>
</svg>
