<?xml version="1.0" encoding="utf-8"?>
<!-- Generator: Adobe Illustrator 24.2.3, SVG Export Plug-In . SVG Version: 6.00 Build 0)  -->
<svg version="1.1" id="Layer_1" xmlns="http://www.w3.org/2000/svg" xmlns:xlink="http://www.w3.org/1999/xlink" x="0px" y="0px"
	 viewBox="0 0 512 512" enable-background="new 0 0 512 512" xml:space="preserve">
<g>
	<rect x="252.093" y="80.23" fill="#6CB544" width="7.814" height="7.814"/>
	<path fill="#6CB544" d="M252.093,36.69v4.471h7.814V36.69c2.613-0.684,4.968-2.01,6.867-3.831l3.312,2.03l4.105-6.654l-3.327-2.045
		c0.453-1.456,0.763-2.965,0.763-4.563C271.627,13.043,264.584,6,256,6s-15.627,7.043-15.627,15.627
		C240.373,28.857,245.388,34.934,252.093,36.69z M256,13.814c4.362,0,7.814,3.452,7.814,7.814s-3.452,7.814-7.814,7.814
		c-4.362,0-7.814-3.452-7.814-7.814S251.638,13.814,256,13.814z"/>
	<rect x="252.093" y="48.975" fill="#6CB544" width="7.814" height="7.814"/>
	<rect x="252.093" y="64.603" fill="#6CB544" width="7.814" height="7.814"/>
	<rect x="252.093" y="95.857" fill="#6CB544" width="7.814" height="7.814"/>
	
		<rect x="331.452" y="66.558" transform="matrix(0.5237 -0.8519 0.8519 0.5237 99.7154 319.265)" fill="#6CB544" width="7.81" height="7.81"/>
	<polygon fill="#6CB544" points="244.646,33.211 240.541,26.557 233.887,30.647 237.992,37.301 	"/>
	<polygon fill="#6CB544" points="327.422,61.001 320.768,56.896 316.678,63.55 323.332,67.655 	"/>
	<polygon fill="#6CB544" points="98.246,123.296 94.141,116.627 87.487,120.732 91.592,127.387 	"/>
	
		<rect x="278.21" y="33.796" transform="matrix(0.5251 -0.8511 0.8511 0.5251 101.8957 258.0057)" fill="#6CB544" width="7.818" height="7.818"/>
	<polygon fill="#6CB544" points="300.807,44.611 294.153,40.521 290.047,47.174 296.701,51.264 	"/>
	<polygon fill="#6CB544" points="124.861,106.906 120.756,100.252 120.756,100.253 114.102,104.342 118.208,111.012 	"/>
	<polygon fill="#6CB544" points="138.169,98.726 134.079,92.073 127.41,96.178 131.515,102.832 	"/>
	
		<rect x="142.2" y="85.359" transform="matrix(0.8519 -0.5237 0.5237 0.8519 -25.1101 89.7267)" fill="#6CB544" width="7.81" height="7.81"/>
	
		<rect x="344.76" y="74.753" transform="matrix(0.5237 -0.8519 0.8519 0.5237 99.0726 334.5059)" fill="#6CB544" width="7.81" height="7.81"/>
	<polygon fill="#6CB544" points="111.554,115.102 107.449,108.447 100.795,112.538 104.9,119.191 	"/>
	<polygon fill="#6CB544" points="102.306,177.673 107.159,180.267 110.852,173.399 106.014,170.79 106.014,170.791 	"/>
	
		<rect x="321.868" y="443.508" transform="matrix(0.8519 -0.5237 0.5237 0.8519 -186.054 236.8436)" fill="#6CB544" width="7.811" height="7.81"/>
	
		<rect x="195.43" y="52.594" transform="matrix(0.8519 -0.5237 0.5237 0.8519 -0.0702 112.7497)" fill="#6CB544" width="7.81" height="7.81"/>
	
		<rect x="155.507" y="77.164" transform="matrix(0.8519 -0.5237 0.5237 0.8519 -18.8481 95.4826)" fill="#6CB544" width="7.81" height="7.81"/>
	<polygon fill="#6CB544" points="231.338,41.406 227.233,34.752 220.579,38.842 224.684,45.496 	"/>
	<polygon fill="#6CB544" points="178.092,74.156 174.002,67.502 167.348,71.607 171.438,78.261 	"/>
	
		<rect x="182.123" y="60.789" transform="matrix(0.8519 -0.5237 0.5237 0.8519 -6.332 106.9953)" fill="#6CB544" width="7.81" height="7.81"/>
	<polygon fill="#6CB544" points="314.114,52.806 307.46,48.716 303.355,55.37 310.009,59.46 	"/>
	<rect x="455.249" y="267.4" fill="#6CB544" width="7.814" height="7.814"/>
	<rect x="455.249" y="251.774" fill="#6CB544" width="7.814" height="7.814"/>
	<rect x="455.249" y="220.522" fill="#6CB544" width="7.814" height="7.814"/>
	<rect x="455.249" y="236.148" fill="#6CB544" width="7.814" height="7.814"/>
	<rect x="455.249" y="189.27" fill="#6CB544" width="7.814" height="7.814"/>
	<rect x="455.249" y="204.896" fill="#6CB544" width="7.814" height="7.814"/>
	<rect x="455.249" y="283.026" fill="#6CB544" width="7.814" height="7.814"/>
	<path fill="#6CB544" d="M444.032,150.356l-3.708,2l3.708,6.882l3.724-2.014c1.999,2.15,4.578,3.723,7.493,4.487v4.228h7.814v-4.228
		c6.705-1.755,11.721-7.832,11.721-15.062c0-8.584-7.043-15.627-15.627-15.627v0c-8.584,0-15.627,7.043-15.627,15.627
		C443.528,147.933,443.734,149.158,444.032,150.356z M459.156,138.834c4.362,0,7.814,3.452,7.814,7.814
		c0,4.362-3.452,7.814-7.814,7.814s-7.814-3.452-7.814-7.814C451.342,142.286,454.794,138.834,459.156,138.834z"/>
	<rect x="455.249" y="314.277" fill="#6CB544" width="7.814" height="7.814"/>
	<rect x="455.249" y="298.651" fill="#6CB544" width="7.814" height="7.814"/>
	<rect x="455.249" y="173.644" fill="#6CB544" width="7.814" height="7.814"/>
	<rect x="455.249" y="329.887" fill="#6CB544" width="7.814" height="7.814"/>
	
		<rect x="437.917" y="132.061" transform="matrix(0.5251 -0.8511 0.8511 0.5251 94.1163 440.5951)" fill="#6CB544" width="7.819" height="7.818"/>
	<path fill="#6CB544" d="M463.062,350.242v-4.731h-7.814l0,0.001v4.731c-2.927,0.766-5.506,2.355-7.508,4.517l-6.15-3.265
		l-3.678,6.898l6.104,3.234c-0.292,1.188-0.488,2.42-0.488,3.693c0,1.588,0.316,3.085,0.763,4.533l-4.105,2.533l4.09,6.654
		l4.075-2.504c2.815,2.71,6.62,4.41,10.805,4.41c8.585,0,15.627-7.042,15.627-15.627
		C474.783,358.09,469.767,351.998,463.062,350.242z M459.156,373.133c-4.362,0-7.814-3.452-7.814-7.814s3.452-7.814,7.814-7.814
		s7.814,3.452,7.814,7.814S463.517,373.133,459.156,373.133z"/>
	<polygon fill="#6CB544" points="380.653,93.752 373.999,89.662 373.999,89.661 369.909,96.315 376.563,100.405 	"/>
	
		<rect x="384.683" y="99.324" transform="matrix(0.5236 -0.852 0.852 0.5236 97.1709 380.2357)" fill="#6CB544" width="7.81" height="7.81"/>
	<polygon fill="#6CB544" points="401.423,173.217 405.116,180.1 409.633,177.673 405.925,170.791 	"/>
	<polygon fill="#6CB544" points="426.573,159.742 430.266,166.609 437.149,162.915 433.441,156.033 	"/>
	<polygon fill="#6CB544" points="367.345,85.571 360.691,81.466 356.601,88.12 363.255,92.225 	"/>
	<polygon fill="#6CB544" points="433.898,126.501 427.245,122.411 423.139,129.065 429.793,133.154 	"/>
	<polygon fill="#6CB544" points="420.591,118.305 413.937,114.216 409.832,120.87 416.486,124.96 	"/>
	<polygon fill="#6CB544" points="407.283,110.126 400.614,106.021 396.524,112.675 403.178,116.78 	"/>
	<polygon fill="#6CB544" points="419.69,163.404 412.808,167.113 416.516,173.995 423.384,170.287 419.69,163.403 	"/>
	<polygon fill="#6CB544" points="218.015,49.586 213.925,42.932 207.271,47.037 211.361,53.691 	"/>
	<polygon fill="#6CB544" points="373.632,413.332 377.738,419.986 384.392,415.896 380.286,409.242 	"/>
	
		<rect x="361.791" y="418.904" transform="matrix(0.8519 -0.5237 0.5237 0.8519 -167.2694 254.1413)" fill="#6CB544" width="7.811" height="7.81"/>
	
		<rect x="388.41" y="402.517" transform="matrix(0.851 -0.5251 0.5251 0.851 -154.98 266.5697)" fill="#6CB544" width="7.818" height="7.817"/>
	<polygon fill="#6CB544" points="347.017,429.724 351.107,436.378 357.761,432.273 353.671,425.649 	"/>
	
		<rect x="172.02" y="437.19" transform="matrix(0.5238 -0.8519 0.8519 0.5238 -291.9722 359.9356)" fill="#6CB544" width="7.81" height="7.811"/>
	<path fill="#6CB544" d="M431.9,341.917v-69.184c0-20.029-16.294-36.323-36.322-36.323h-10.411
		c9.399-7.16,15.48-18.462,15.48-31.162c0-21.594-17.568-39.161-39.162-39.161s-39.161,17.567-39.161,39.161
		c0,6.586,1.641,12.793,4.525,18.245c-7.723-6.644-17.673-10.524-28.224-10.524l-14.147,0c15.766-9.631,26.313-27.001,26.313-46.789
		c0-27.185-20.309-50.294-46.882-54.168v-4.527h-15.814v4.527c-26.573,3.874-46.882,26.983-46.882,54.168
		c0,19.788,10.546,37.158,26.312,46.789l-14.147,0c-10.551,0-20.501,3.88-28.225,10.525c2.884-5.453,4.525-11.66,4.525-18.245
		c0-21.594-17.568-39.161-39.162-39.161c-10.438,0-20.266,4.08-27.674,11.488c-7.408,7.408-11.488,17.236-11.487,27.673
		c0,10.438,4.079,20.266,11.487,27.674c1.263,1.263,2.602,2.421,3.996,3.487h-10.416c-20.028,0-36.323,16.294-36.323,36.323v67.794
		l-7.083,4.227l7.083,11.893v4.97h89.857v15.628h78.137v7.813h15.814v-7.813h78.137v-15.628H431.9v-1.796l0.766,0.405l7.442-13.954
		L431.9,341.917z M256,205.155c-21.491,0-38.975-17.484-38.975-38.976c0-21.491,17.484-38.975,38.975-38.975
		c21.491,0,38.976,17.484,38.976,38.975C294.976,187.671,277.491,205.155,256,205.155z M392.646,283.195v62.509h-50.603v-89.417
		c-0.001-1.376-0.072-2.767-0.211-4.161h53.745c11.5,0,20.509,9.009,20.509,20.51v73.068h-7.627v-62.509H392.646z M361.484,181.809
		c12.874,0,23.348,10.474,23.348,23.348s-10.474,23.348-23.348,23.348s-23.348-10.474-23.348-23.348S348.61,181.809,361.484,181.809
		z M337.802,236.41h-0.697c-0.175-0.338-0.375-0.658-0.559-0.99C336.957,235.76,337.378,236.087,337.802,236.41z M205.118,267.568
		v93.765H185.77V256.31c0-1.41,0.156-2.919,0.491-4.819c0.301-1.539,0.716-3.033,1.271-4.568l0.743-2.056
		c4.436-9.824,14.273-16.164,25.102-16.164l4-0.016h81.248c10.829,0,20.666,6.34,25.102,16.164l0.743,2.056
		c0.553,1.533,0.969,3.028,1.257,4.496c0.348,1.971,0.503,3.485,0.504,4.906v105.025h-19.348v-93.765h-15.813v93.765h-70.137
		v-93.765H205.118z M174.894,236.41h-0.696c0.424-0.323,0.844-0.65,1.254-0.989C175.269,235.752,175.069,236.072,174.894,236.41z
		 M150.515,181.809c12.874,0,23.348,10.474,23.348,23.348s-10.474,23.348-23.348,23.348s-23.348-10.474-23.348-23.348
		S137.641,181.809,150.515,181.809z M115.28,252.126h54.884c-0.137,1.39-0.207,2.775-0.208,4.147v89.4h-50.603v-62.51H103.54v62.51
		h-7.627v-73.068C95.913,261.488,104.331,252.699,115.28,252.126z"/>
	<rect x="252.093" y="435.645" fill="#6CB544" width="7.814" height="7.814"/>
	<polygon fill="#6CB544" points="88.555,170.287 95.438,173.996 99.131,167.112 92.249,163.404 	"/>
	
		<rect x="198.635" y="453.564" transform="matrix(0.5238 -0.8519 0.8519 0.5238 -293.2454 390.4066)" fill="#6CB544" width="7.81" height="7.811"/>
	<polygon fill="#6CB544" points="400.248,396.957 404.353,403.611 411.007,399.521 406.902,392.867 	"/>
	
		<rect x="158.712" y="428.963" transform="matrix(0.5237 -0.8519 0.8519 0.5237 -291.3106 344.7283)" fill="#6CB544" width="7.81" height="7.811"/>
	<path fill="#6CB544" d="M277.915,481.445l-4.105-6.653l-6.654,4.105l1.435,2.319c-2.85-3.903-7.423-6.471-12.59-6.471
		c-4.18,0-7.976,1.69-10.79,4.395l-4.029-2.472l-4.09,6.654l4.044,2.488c-0.45,1.452-0.763,2.971-0.763,4.563
		c0,8.585,7.043,15.627,15.627,15.627s15.627-7.042,15.627-15.627c0-2.7-0.761-5.223-1.984-7.447l1.618,2.625L277.915,481.445z
		 M256,498.186c-4.362,0-7.814-3.452-7.814-7.814s3.452-7.814,7.814-7.814c4.362,0,7.814,3.452,7.814,7.814
		S260.362,498.186,256,498.186z"/>
	
		<rect x="281.945" y="468.078" transform="matrix(0.8519 -0.5237 0.5237 0.8519 -204.8315 219.5756)" fill="#6CB544" width="7.811" height="7.81"/>
	
		<rect x="335.176" y="435.281" transform="matrix(0.8519 -0.5237 0.5237 0.8519 -179.7895 242.6315)" fill="#6CB544" width="7.811" height="7.81"/>
	<polygon fill="#6CB544" points="259.907,466.932 252.093,466.932 252.093,474.745 256,474.745 259.907,474.745 	"/>
	
		<rect x="295.253" y="459.883" transform="matrix(0.8519 -0.5237 0.5237 0.8519 -198.5705 225.3328)" fill="#6CB544" width="7.811" height="7.81"/>
	<rect x="252.093" y="451.304" fill="#6CB544" width="7.814" height="7.814"/>
	<polygon fill="#6CB544" points="307.094,454.326 311.184,460.98 317.838,456.875 313.748,450.221 	"/>
	<rect x="252.093" y="404.389" fill="#6CB544" width="7.814" height="7.814"/>
	<polygon fill="#6CB544" points="223.784,475.126 230.438,479.231 234.528,472.578 227.874,468.473 	"/>
	<rect x="252.093" y="420.018" fill="#6CB544" width="7.814" height="7.814"/>
	
		<rect x="211.943" y="461.76" transform="matrix(0.5237 -0.8519 0.8519 0.5237 -293.8957 405.7025)" fill="#6CB544" width="7.81" height="7.81"/>
	<rect x="252.093" y="388.761" fill="#6CB544" width="7.814" height="7.814"/>
	<polygon fill="#6CB544" points="183.861,450.556 190.515,454.662 194.605,448.008 187.951,443.903 	"/>
	<rect x="48.938" y="283.268" fill="#6CB544" width="7.814" height="7.814"/>
	<rect x="48.938" y="267.642" fill="#6CB544" width="7.814" height="7.814"/>
	<rect x="48.938" y="298.894" fill="#6CB544" width="7.814" height="7.814"/>
	<rect x="48.938" y="252.016" fill="#6CB544" width="7.814" height="7.814"/>
	<rect x="48.938" y="236.39" fill="#6CB544" width="7.814" height="7.814"/>
	<rect x="48.938" y="330.129" fill="#6CB544" width="7.814" height="7.814"/>
	<rect x="48.938" y="220.764" fill="#6CB544" width="7.814" height="7.814"/>
	<polygon fill="#6CB544" points="84.923,131.476 80.833,124.822 74.179,128.912 78.269,135.581 	"/>
	<polygon fill="#6CB544" points="74.79,162.915 81.673,166.609 85.381,159.742 78.498,156.033 	"/>
	<rect x="48.938" y="314.504" fill="#6CB544" width="7.814" height="7.814"/>
	<path fill="#6CB544" d="M48.938,161.71v4.456h7.814v-4.456c2.916-0.766,5.494-2.336,7.493-4.487l3.663,1.984l3.708-6.882
		l-3.647-1.969c0.297-1.198,0.504-2.423,0.504-3.708c0-1.598-0.311-3.123-0.763-4.578l3.907-2.396l-4.09-6.653l-3.892,2.396
		c-2.814-2.705-6.609-4.395-10.79-4.395v0c-8.585,0-15.627,7.043-15.627,15.627C37.217,153.878,42.233,159.954,48.938,161.71z
		 M52.844,138.834c4.362,0,7.814,3.452,7.814,7.814c0,4.362-3.452,7.814-7.814,7.814c-4.362,0-7.814-3.452-7.814-7.814
		C45.031,142.286,48.483,138.834,52.844,138.834z"/>
	<polygon fill="#6CB544" points="433.532,376.475 426.878,380.566 430.968,387.235 437.622,383.13 433.532,376.476 	"/>
	<polygon fill="#6CB544" points="413.555,388.761 417.661,395.415 424.315,391.324 420.225,384.671 	"/>
	
		<rect x="105.47" y="396.198" transform="matrix(0.5251 -0.8511 0.8511 0.5251 -288.5667 283.1075)" fill="#6CB544" width="7.818" height="7.818"/>
	
		<rect x="92.159" y="388.015" transform="matrix(0.5237 -0.8519 0.8519 0.5237 -288.1284 268.5258)" fill="#6CB544" width="7.81" height="7.81"/>
	<polygon fill="#6CB544" points="117.307,409.578 123.961,413.668 128.066,407.014 121.412,402.924 	"/>
	<polygon fill="#6CB544" points="130.615,417.773 137.269,421.863 141.374,415.21 134.72,411.119 	"/>
	
		<rect x="78.851" y="379.82" transform="matrix(0.5238 -0.8519 0.8519 0.5238 -287.4716 253.2454)" fill="#6CB544" width="7.81" height="7.811"/>
	<rect x="48.938" y="205.138" fill="#6CB544" width="7.814" height="7.814"/>
	<rect x="48.938" y="173.886" fill="#6CB544" width="7.814" height="7.814"/>
	<rect x="48.938" y="189.512" fill="#6CB544" width="7.814" height="7.814"/>
	<path fill="#6CB544" d="M66.451,372.946c-0.204,0.361-0.419,0.714-0.65,1.057C66.032,373.661,66.247,373.307,66.451,372.946
		c1.28-2.26,2.021-4.86,2.021-7.627c0-7.23-5.016-13.322-11.721-15.078v-4.487h-7.814v4.487
		c-6.705,1.757-11.721,7.848-11.721,15.078c0,8.585,7.043,15.627,15.627,15.627c5.361,0,10.123-2.744,12.941-6.898l-1.709,2.762
		l6.654,4.105l4.09-6.654l-6.654-4.105L66.451,372.946z M52.844,373.133c-4.362,0-7.814-3.452-7.814-7.814s3.452-7.814,7.814-7.814
		c4.362,0,7.814,3.452,7.814,7.814S57.206,373.133,52.844,373.133z"/>
	
		<rect x="66.517" y="351.477" transform="matrix(0.8592 -0.5116 0.5116 0.8592 -171.9079 86.0659)" fill="#6CB544" width="7.815" height="7.815"/>
	<polygon fill="#6CB544" points="143.923,425.953 150.592,430.058 154.682,423.404 148.028,419.299 	"/>
</g>
</svg>
