<?xml version="1.0" encoding="utf-8"?>
<!-- Generator: Adobe Illustrator 24.2.3, SVG Export Plug-In . SVG Version: 6.00 Build 0)  -->
<svg version="1.1" id="Layer_1" xmlns="http://www.w3.org/2000/svg" xmlns:xlink="http://www.w3.org/1999/xlink" x="0px" y="0px"
	 viewBox="0 0 512 512" enable-background="new 0 0 512 512" xml:space="preserve">
<g>
	<path fill="#6CB544" d="M377.125,404.097c-1.979,0-3.966,0.865-5.453,2.373c-1.488,1.508-2.325,3.511-2.298,5.464v71.602
		l-45.566-31.406c-2.566-1.746-6.153-1.747-8.731,0.007l-45.556,31.399l-0.002-71.525c0.085-2.174-0.86-4.334-2.595-5.924
		c-1.735-1.59-3.973-2.348-6.123-2.073c-3.826,0.482-6.931,4.145-6.783,7.92v86.589c0.038,2.649,1.691,5.141,4.314,6.505
		c2.621,1.363,5.609,1.287,7.815-0.215l53.3-37.082l53.318,37.094c1.147,0.781,2.515,1.174,3.935,1.174
		c1.286,0,2.614-0.323,3.86-0.971c2.625-1.364,4.278-3.856,4.317-6.533v-86.533c0.028-1.98-0.809-3.982-2.296-5.491
		C381.094,404.962,379.105,404.097,377.125,404.097z"/>
	<path fill="#6CB544" d="M319.447,242.599c-45.62,0-82.734,37.132-82.734,82.775c0,45.642,37.114,82.775,82.734,82.775
		s82.733-37.133,82.733-82.775c0-22.077-8.615-42.855-24.257-58.506C362.28,251.217,341.513,242.598,319.447,242.599z
		 M386.677,325.373c0,37.089-30.159,67.264-67.23,67.264s-67.23-30.175-67.23-67.264c0-18.001,6.984-34.902,19.666-47.589
		c12.681-12.689,29.573-19.676,47.564-19.676C356.518,258.108,386.677,288.283,386.677,325.373z"/>
	<path fill="#6CB544" d="M359.3,288.591c-2.036,0.147-3.969,1.117-5.281,2.635l-46.367,51.64l-17.24-17.25
		c-1.375-1.422-3.375-2.254-5.489-2.284c-0.039,0-0.078-0.001-0.115-0.001c-2.072,0-4.048,0.773-5.435,2.131
		c-1.413,1.382-2.233,3.387-2.251,5.5c-0.018,2.116,0.769,4.136,2.173,5.556l23.255,23.085c1.384,1.372,3.359,2.15,5.44,2.15
		c0.059,0,0.119-0.001,0.178-0.002c2.148-0.046,4.162-0.916,5.546-2.408l51.87-57.664c2.045-2.14,2.421-5.487,0.957-8.526
		C365.081,290.124,362.254,288.333,359.3,288.591z"/>
	<path fill="#6CB544" d="M120.823,124.124c0.184,1.96,1.217,3.854,2.837,5.197c1.442,1.196,3.227,1.853,4.985,1.853
		c0.183,0,0.365-0.007,0.547-0.021h253.675c0.03,0,0.06,0,0.091,0c1.95,0,3.913-0.835,5.397-2.3
		c1.507-1.487,2.372-3.476,2.372-5.455c0-1.981-0.865-3.971-2.374-5.458c-1.508-1.487-3.508-2.321-5.46-2.297l-254.867,0.001
		l-0.185,0.009C123.717,116.037,120.437,119.996,120.823,124.124z"/>
	<path fill="#6CB544" d="M123.661,71.613c1.442,1.196,3.228,1.854,4.986,1.854c0.182,0,0.364-0.007,0.545-0.021h253.671
		c1.928,0.034,3.976-0.804,5.485-2.29c1.511-1.489,2.378-3.48,2.378-5.465c0-1.981-0.865-3.971-2.374-5.459
		c-1.508-1.487-3.508-2.323-5.46-2.297H128.026l-0.185,0.009c-4.124,0.386-7.403,4.345-7.018,8.472
		C121.007,68.376,122.041,70.27,123.661,71.613z"/>
	<path fill="#6CB544" d="M440.571,5.999H70.348l-0.372,0.035c-3.597,0.686-6.363,4.093-6.298,7.72v432.805
		c0,4.131,3.622,7.754,7.752,7.754h147.583c1.967,0.046,3.969-0.791,5.479-2.272c1.521-1.492,2.393-3.491,2.393-5.483
		c0-1.982-0.866-3.972-2.376-5.46c-1.508-1.487-3.544-2.294-5.459-2.295H79.182V21.508H432.82v417.296h-9.335
		c-1.966-0.006-3.97,0.792-5.48,2.274c-1.52,1.492-2.392,3.49-2.392,5.482c0,1.981,0.865,3.971,2.375,5.459
		c1.484,1.463,3.444,2.296,5.365,2.296c0.031,0,0.063-0.001,0.095-0.001h17.124c4.129-0.001,7.751-3.625,7.751-7.754V13.753
		C448.324,9.624,444.701,6,440.571,5.999z"/>
	<path fill="#6CB544" d="M123.661,244.735c1.442,1.196,3.227,1.853,4.985,1.853c0.183,0,0.366-0.007,0.548-0.021l109.466,0
		c1.975,0.032,3.97-0.791,5.479-2.272c1.521-1.492,2.392-3.49,2.392-5.482c0-1.981-0.865-3.971-2.374-5.458
		c-1.508-1.487-3.511-2.323-5.461-2.297l-110.67,0.001l-0.185,0.009c-4.124,0.386-7.404,4.344-7.018,8.472
		C121.007,241.498,122.041,243.392,123.661,244.735z"/>
	<path fill="#6CB544" d="M120.823,181.83c0.184,1.96,1.217,3.854,2.837,5.197c1.442,1.196,3.228,1.854,4.986,1.854
		c0.182,0,0.364-0.007,0.545-0.021l248.083,0c1.979,0.075,3.977-0.803,5.485-2.289c1.512-1.489,2.379-3.481,2.379-5.466
		c0-1.981-0.865-3.971-2.374-5.458c-1.508-1.487-3.505-2.32-5.46-2.297h-249.28l-0.185,0.009
		C123.717,173.744,120.437,177.703,120.823,181.83z"/>
</g>
</svg>
