<?xml version="1.0" encoding="utf-8"?>
<!-- Generator: Adobe Illustrator 24.2.3, SVG Export Plug-In . SVG Version: 6.00 Build 0)  -->
<svg version="1.1" id="Layer_1" xmlns="http://www.w3.org/2000/svg" xmlns:xlink="http://www.w3.org/1999/xlink" x="0px" y="0px"
	 viewBox="0 0 33 22" style="enable-background:new 0 0 33 22;" xml:space="preserve">
<style type="text/css">
	.st0{fill:#04247B;}
	.st1{fill:#FFFFFF;}
	.st2{fill:#CE152A;}
</style>
<g>
	<g>
		<g>
			<g id="XMLID_1308_">
				<polygon id="XMLID_14_" class="st0" points="0,14.7 0,19.6 7.3,14.7 				"/>
				<polygon id="XMLID_13_" class="st0" points="13.8,0 3.7,0 13.8,6.7 				"/>
				<polygon id="XMLID_12_" class="st0" points="0,2.4 0,7.3 7.3,7.3 				"/>
				<polygon id="XMLID_11_" class="st0" points="33,7.3 33,2.4 25.7,7.3 				"/>
				<polygon id="XMLID_10_" class="st0" points="29.3,0 19.2,0 19.2,6.7 				"/>
				<polygon id="XMLID_9_" class="st0" points="33,19.6 33,14.7 25.7,14.7 				"/>
				<polygon id="XMLID_8_" class="st0" points="3.7,22 13.8,22 13.8,15.3 				"/>
				<polygon id="XMLID_7_" class="st0" points="19.2,22 29.3,22 19.2,15.3 				"/>
				<polygon id="XMLID_6_" class="st1" points="22,14.7 24.4,14.7 33,20.4 33,19.6 25.7,14.7 33,14.7 33,7.3 25.7,7.3 33,2.4 33,0 
					33,0 22,7.3 19.5,7.3 30.5,0 29.3,0 19.2,6.7 19.2,0 13.8,0 13.8,6.7 3.7,0 0,0 11,7.3 8.5,7.3 0,1.6 0,2.4 7.3,7.3 0,7.3 
					0,14.7 7.3,14.7 0,19.6 0,22 0,22 11,14.7 13.5,14.7 2.5,22 3.7,22 13.8,15.3 13.8,22 19.2,22 19.2,15.3 29.3,22 33,22 				"/>
				<polygon id="XMLID_5_" class="st2" points="0,1.6 8.5,7.3 11,7.3 0,0 0,0 				"/>
				<polygon id="XMLID_4_" class="st2" points="22,14.7 33,22 33,22 33,20.4 24.4,14.7 				"/>
				<polygon id="XMLID_3_" class="st2" points="19.5,7.3 22,7.3 33,0 30.5,0 				"/>
				<polygon id="XMLID_2_" class="st2" points="13.5,14.7 11,14.7 0,22 2.5,22 				"/>
				<polygon id="XMLID_1_" class="st2" points="33,8.8 18.2,8.8 18.2,0 14.9,0 14.9,8.8 0,8.8 0,13.2 14.9,13.2 14.9,22 18.2,22 
					18.2,13.2 33,13.2 				"/>
			</g>
		</g>
	</g>
</g>
</svg>
