<?xml version="1.0" encoding="utf-8"?>
<!-- Generator: Adobe Illustrator 24.2.3, SVG Export Plug-In . SVG Version: 6.00 Build 0)  -->
<svg version="1.1" id="Layer_1" xmlns="http://www.w3.org/2000/svg" xmlns:xlink="http://www.w3.org/1999/xlink" x="0px" y="0px"
	 viewBox="0 0 24 20" style="enable-background:new 0 0 24 20;" xml:space="preserve">
<style type="text/css">
	.st0{fill-rule:evenodd;clip-rule:evenodd;fill:#6CB544;}
</style>
<path id="wind" class="st0" d="M20.4,7.1H0.9C0.4,7.1,0,6.7,0,6.2s0.4-0.9,0.9-0.9h19.5c1,0,1.8-0.8,1.8-1.8c0-1-0.8-1.8-1.8-1.8
	c-1,0-1.8,0.8-1.8,1.8c0,0.5-0.4,0.9-0.9,0.9c-0.5,0-0.9-0.4-0.9-0.9c0,0,0,0,0,0c0-2,1.6-3.6,3.6-3.6c2,0,3.6,1.6,3.6,3.6
	C24,5.5,22.4,7.1,20.4,7.1z M22.7,10.9H0.9C0.4,10.9,0,10.5,0,10s0.4-0.9,0.9-0.9h21.8c0.5,0,0.9,0.4,0.9,0.9S23.2,10.9,22.7,10.9
	L22.7,10.9z M20.4,20c-2,0-3.6-1.6-3.6-3.6c0-0.5,0.4-0.9,0.9-0.9c0.5,0,0.9,0.4,0.9,0.9c0,0,0,0,0,0c0,1,0.8,1.8,1.8,1.8
	c1,0,1.8-0.8,1.8-1.8c0-1-0.8-1.8-1.8-1.8H0.9c-0.5,0-0.9-0.4-0.9-0.9s0.4-0.9,0.9-0.9h19.5c2,0,3.6,1.6,3.6,3.6S22.4,20,20.4,20z"
	/>
</svg>
